<?xml version="1.0" encoding="utf-8"?>
<!-- Generator: Adobe Illustrator 26.5.0, SVG Export Plug-In . SVG Version: 6.00 Build 0)  -->
<svg version="1.1" id="Layer_1" xmlns="http://www.w3.org/2000/svg" xmlns:xlink="http://www.w3.org/1999/xlink" x="0px" y="0px"
	 viewBox="0 0 30 30" style="enable-background:new 0 0 30 30;" xml:space="preserve">
<style type="text/css">
	.st0{opacity:0.75;fill-rule:evenodd;clip-rule:evenodd;fill:var(--avatar-generic-svg-path-fill,#FFFFFF);fill-opacity:0.7;}
</style>
<path class="st0" d="M15,4.4c-6.9,0-12.5,5.9-12.5,13.1c0,3,1,5.7,2.5,7.9c0.1,0,0.1,0,0.2,0C5.8,25.3,6.4,25.2,7,25
	c0.5-0.2,1.1-0.3,1.6-0.5c0.5-0.2,1-0.5,1.5-0.8c0.5-0.3,0.8-0.7,1.1-1.2c0.2-0.3,0.3-0.5,0.7-0.7c0.1,0,0.3-0.1,0.4-0.1
	c0-0.2,0-0.5,0-0.5s-0.3-0.2-0.5-0.8c-0.2-0.5-0.3-1.7-0.3-1.7s-0.2-0.1-0.3-0.1c-0.8-0.4-0.9-1.6-1-2.5c-0.1-0.3-0.1-0.7,0.2-0.9
	c0.1,0,0.1-0.1,0.2-0.1c-0.2-0.5-0.3-1.1-0.4-1.6c-0.1-0.6-0.3-1.2-0.2-1.9c0.1-0.7,0.5-1.3,0.7-1.9c0.2-0.5,0.8-0.9,1.3-0.9
	c0.3-0.5,0.8-0.8,1.3-1c0.4-0.2,0.9-0.2,1.3-0.2c0.6,0,1.1,0.2,1.7,0.3c0.4,0.1,0.8,0.2,1.1,0.3c0.2,0.1,0.3,0.2,0.5,0.3
	c0.2,0.1,0.3,0.2,0.5,0.3c0.3,0.2,0.6,0.5,0.7,0.8c0.1,0.2,0.2,0.4,0.3,0.6c0.1,0.1,0.2,0.2,0.2,0.3c0.4,1,0.3,2,0.3,3.1
	c0,0.4,0,0.9-0.2,1.3c0.1,0,0.1,0,0.2,0.1c0.3,0.2,0.2,1.3,0.1,1.6c-0.1,0.5-0.4,1.3-0.5,1.5c-0.1,0.2-0.7,0.4-0.7,0.4
	s-0.2,1.4-0.3,1.8c-0.1,0.4-0.5,0.7-0.5,0.7l0,0.5c0,0,0.6,0.1,0.8,0.3c0.2,0.2,0.2,0.2,0.4,0.4s0.4,0.3,0.5,0.5
	c0.4,0.4,0.9,0.8,1.4,1c0.3,0.1,0.5,0.1,0.8,0.2c0.2,0.1,0.4,0.2,0.6,0.3c0.5,0.2,0.9,0.3,1.4,0.6c0.4,0.2,0.7,0.3,1.1,0.5
	c1.7-2.2,2.7-5,2.7-8.1C27.6,10.3,22,4.4,15,4.4z"/>
</svg>
