<svg width="47" height="16" viewBox="0 0 47 16" xmlns="http://www.w3.org/2000/svg">
<path fill-rule="evenodd" clip-rule="evenodd" d="M3 2H44C44.5523 2 45 2.44772 45 3V13C45 13.5523 44.5523 14 44 14H3C2.44772 14 2 13.5523 2 13V3C2 2.44772 2.44772 2 3 2ZM44 0C45.6569 0 47 1.34315 47 3V13C47 14.6569 45.6569 16 44 16H3C1.34315 16 0 14.6569 0 13V3C0 1.34315 1.34315 0 3 0H44Z" />
<path d="M38 5.5C38 6.32843 38.6716 7 39.5 7C40.3284 7 41 6.32843 41 5.5C41 4.67157 40.3284 4 39.5 4C38.6716 4 38 4.67157 38 5.5Z" />
<path d="M33 5.5C33 6.32843 33.6716 7 34.5 7C35.3284 7 36 6.32843 36 5.5C36 4.67157 35.3284 4 34.5 4C33.6716 4 33 4.67157 33 5.5Z" />
<path d="M28 5.5C28 6.32843 28.6716 7 29.5 7C30.3284 7 31 6.32843 31 5.5C31 4.67157 30.3284 4 29.5 4C28.6716 4 28 4.67157 28 5.5Z" />
<path d="M23 5.5C23 6.32843 23.6716 7 24.5 7C25.3284 7 26 6.32843 26 5.5C26 4.67157 25.3284 4 24.5 4C23.6716 4 23 4.67157 23 5.5Z" />
<path d="M18 5.5C18 6.32843 18.6716 7 19.5 7C20.3284 7 21 6.32843 21 5.5C21 4.67157 20.3284 4 19.5 4C18.6716 4 18 4.67157 18 5.5Z" />
<path d="M38 10.5C38 11.3284 38.6716 12 39.5 12C40.3284 12 41 11.3284 41 10.5C41 9.67157 40.3284 9 39.5 9C38.6716 9 38 9.67157 38 10.5Z" />
<path d="M33 10.5C33 11.3284 33.6716 12 34.5 12C35.3284 12 36 11.3284 36 10.5C36 9.67157 35.3284 9 34.5 9C33.6716 9 33 9.67157 33 10.5Z" />
<path d="M28 10.5C28 11.3284 28.6716 12 29.5 12C30.3284 12 31 11.3284 31 10.5C31 9.67157 30.3284 9 29.5 9C28.6716 9 28 9.67157 28 10.5Z" />
<path d="M23 10.5C23 11.3284 23.6716 12 24.5 12C25.3284 12 26 11.3284 26 10.5C26 9.67157 25.3284 9 24.5 9C23.6716 9 23 9.67157 23 10.5Z" />
<path d="M18 10.5C18 11.3284 18.6716 12 19.5 12C20.3284 12 21 11.3284 21 10.5C21 9.67157 20.3284 9 19.5 9C18.6716 9 18 9.67157 18 10.5Z" />
<path fill-rule="evenodd" clip-rule="evenodd" d="M6 8C6 8.55228 6.44772 9 7 9H12C12.5523 9 13 8.55228 13 8C13 7.44772 12.5523 7 12 7L7 7C6.44772 7 6 7.44772 6 8Z" />
</svg>
