<svg width="24" height="24" viewBox="0 0 24 24" fill="none" xmlns="http://www.w3.org/2000/svg">
<rect width="24" height="24" fill="#76B900"/>
<path fill-rule="evenodd" clip-rule="evenodd" d="M9.21466 9.90228L9.21466 8.86949L9.55892 8.86949C12.4278 8.75473 14.2638 11.2793 14.2638 11.2793C14.2638 11.2793 12.313 14.0334 10.1327 14.0334C9.78842 14.0334 9.55892 14.0334 9.32943 13.9187L9.32943 10.8203C10.477 10.9351 10.5917 11.3941 11.2802 12.5416L12.772 11.2793C12.772 11.2793 11.7393 9.90228 9.90319 9.90228L9.21466 9.90228ZM9.21466 7.9515L9.55892 7.9515C13.4605 7.83673 15.9852 11.2794 15.9852 11.2794C15.9852 11.2794 13.0016 14.8367 10.018 14.8367C9.78845 14.8367 9.44422 14.8367 9.21469 14.722L9.21469 15.64L9.90321 15.64C12.7721 15.64 14.8376 14.1482 16.7884 12.4269C17.1327 12.6564 18.5098 13.3449 18.7393 13.5744C16.9032 15.181 12.4278 16.4433 9.90321 16.4433L9.21469 16.4433L9.21469 17.9351L20.0016 17.9351L20.0016 6.45969L9.21469 6.45969L9.21466 7.9515ZM9.21466 13.9187L9.21466 14.722C6.57533 14.2629 5.88681 11.5088 5.88681 11.5088C5.88681 11.5088 7.14909 10.1318 9.21466 9.9023L9.21466 10.8203C8.06711 10.7056 7.26385 11.7383 7.26385 11.7383C7.26385 11.7383 7.72288 13.4597 9.21466 13.9187ZM4.50976 11.3941C4.50976 11.3941 6.11631 9.09902 9.21466 8.86952L9.21466 8.06623C5.77204 8.29576 2.78845 11.2794 2.78845 11.2794C2.78845 11.2794 4.50976 16.2138 9.21466 16.558L9.21466 15.64C5.77204 15.2958 4.50976 11.3941 4.50976 11.3941Z" fill="white"/>
</svg>
