<svg width="412" height="232" viewBox="0 0 412 232" fill="none" xmlns="http://www.w3.org/2000/svg">
<g clip-path="url(#clip0_4423_79583)">
<rect width="412" height="232" fill="#191919"/>
<g opacity="0.3" filter="url(#filter0_d_4423_79583)">
<mask id="mask0_4423_79583" style="mask-type:alpha" maskUnits="userSpaceOnUse" x="0" y="0" width="412" height="232">
<rect width="412" height="232" fill="black"/>
</mask>
<g mask="url(#mask0_4423_79583)">
<g filter="url(#filter1_f_4423_79583)">
<path d="M-14.9802 -0.339844H-12.6005L-149.769 232H-152.148L-14.9802 -0.339844Z" fill="url(#paint0_linear_4423_79583)"/>
</g>
<g filter="url(#filter2_f_4423_79583)">
<path d="M-14.9802 -0.339844H-12.6005L-149.769 232H-152.148L-14.9802 -0.339844Z" fill="url(#paint1_linear_4423_79583)"/>
</g>
<g filter="url(#filter3_f_4423_79583)">
<path d="M38.1467 -0.339844H40.5265L-96.6417 232H-99.0215L38.1467 -0.339844Z" fill="url(#paint2_linear_4423_79583)"/>
</g>
<g filter="url(#filter4_f_4423_79583)">
<path d="M38.1467 -0.339844H40.5265L-96.6417 232H-99.0215L38.1467 -0.339844Z" fill="url(#paint3_linear_4423_79583)"/>
</g>
<g filter="url(#filter5_f_4423_79583)">
<path d="M38.1467 -0.339844H40.5265L-96.6417 232H-99.0215L38.1467 -0.339844Z" fill="url(#paint4_linear_4423_79583)"/>
<path d="M38.1467 -0.339844H40.5265L-96.6417 232H-99.0215L38.1467 -0.339844Z" fill="url(#paint5_linear_4423_79583)" fill-opacity="0.2"/>
</g>
<g filter="url(#filter6_f_4423_79583)">
<path d="M91.2698 -0.339844H93.6495L-43.5187 232H-45.8984L91.2698 -0.339844Z" fill="url(#paint6_linear_4423_79583)"/>
</g>
<g filter="url(#filter7_f_4423_79583)">
<path d="M91.2698 -0.339844H93.6495L-43.5187 232H-45.8984L91.2698 -0.339844Z" fill="url(#paint7_linear_4423_79583)"/>
</g>
<g filter="url(#filter8_f_4423_79583)">
<path d="M91.2698 -0.339844H93.6495L-43.5187 232H-45.8984L91.2698 -0.339844Z" fill="url(#paint8_linear_4423_79583)"/>
<path d="M91.2698 -0.339844H93.6495L-43.5187 232H-45.8984L91.2698 -0.339844Z" fill="url(#paint9_linear_4423_79583)" fill-opacity="0.2"/>
</g>
<g filter="url(#filter9_f_4423_79583)">
<path d="M144.395 -0.339844H146.775L9.60634 232H7.22656L144.395 -0.339844Z" fill="url(#paint10_linear_4423_79583)"/>
</g>
<g filter="url(#filter10_f_4423_79583)">
<path d="M144.395 -0.339844H146.775L9.60634 232H7.22656L144.395 -0.339844Z" fill="url(#paint11_linear_4423_79583)"/>
</g>
<g filter="url(#filter11_f_4423_79583)">
<path d="M144.395 -0.339844H146.775L9.60634 232H7.22656L144.395 -0.339844Z" fill="url(#paint12_linear_4423_79583)"/>
<path d="M144.395 -0.339844H146.775L9.60634 232H7.22656L144.395 -0.339844Z" fill="url(#paint13_linear_4423_79583)" fill-opacity="0.2"/>
</g>
<g filter="url(#filter12_f_4423_79583)">
<path d="M197.514 -0.339844H199.894L62.7255 232H60.3457L197.514 -0.339844Z" fill="url(#paint14_linear_4423_79583)"/>
</g>
<g filter="url(#filter13_f_4423_79583)">
<path d="M197.514 -0.339844H199.894L62.7255 232H60.3457L197.514 -0.339844Z" fill="url(#paint15_linear_4423_79583)"/>
</g>
<g filter="url(#filter14_f_4423_79583)">
<path d="M197.514 -0.339844H199.894L62.7255 232H60.3457L197.514 -0.339844Z" fill="url(#paint16_linear_4423_79583)"/>
<path d="M197.514 -0.339844H199.894L62.7255 232H60.3457L197.514 -0.339844Z" fill="url(#paint17_linear_4423_79583)" fill-opacity="0.2"/>
</g>
<g filter="url(#filter15_f_4423_79583)">
<path d="M356.885 -0.339844H359.265L222.097 232H219.717L356.885 -0.339844Z" fill="url(#paint18_linear_4423_79583)"/>
</g>
<g filter="url(#filter16_f_4423_79583)">
<path d="M356.885 -0.339844H359.265L222.097 232H219.717L356.885 -0.339844Z" fill="url(#paint19_linear_4423_79583)"/>
</g>
<g filter="url(#filter17_f_4423_79583)">
<path d="M356.885 -0.339844H359.265L222.097 232H219.717L356.885 -0.339844Z" fill="url(#paint20_linear_4423_79583)"/>
<path d="M356.885 -0.339844H359.265L222.097 232H219.717L356.885 -0.339844Z" fill="url(#paint21_linear_4423_79583)" fill-opacity="0.2"/>
</g>
<g filter="url(#filter18_f_4423_79583)">
<path d="M410.006 -0.339844H412.386L275.218 232H272.838L410.006 -0.339844Z" fill="url(#paint22_linear_4423_79583)"/>
</g>
<g filter="url(#filter19_f_4423_79583)">
<path d="M410.006 -0.339844H412.386L275.218 232H272.838L410.006 -0.339844Z" fill="url(#paint23_linear_4423_79583)"/>
</g>
<g filter="url(#filter20_f_4423_79583)">
<path d="M410.006 -0.339844H412.386L275.218 232H272.838L410.006 -0.339844Z" fill="url(#paint24_linear_4423_79583)"/>
<path d="M410.006 -0.339844H412.386L275.218 232H272.838L410.006 -0.339844Z" fill="url(#paint25_linear_4423_79583)" fill-opacity="0.2"/>
</g>
<g filter="url(#filter21_f_4423_79583)">
<path d="M463.133 -0.339844H465.513L328.345 232H325.965L463.133 -0.339844Z" fill="url(#paint26_linear_4423_79583)"/>
</g>
<g filter="url(#filter22_f_4423_79583)">
<path d="M463.133 -0.339844H465.513L328.345 232H325.965L463.133 -0.339844Z" fill="url(#paint27_linear_4423_79583)"/>
</g>
<g filter="url(#filter23_f_4423_79583)">
<path d="M463.133 -0.339844H465.513L328.345 232H325.965L463.133 -0.339844Z" fill="url(#paint28_linear_4423_79583)"/>
<path d="M463.133 -0.339844H465.513L328.345 232H325.965L463.133 -0.339844Z" fill="url(#paint29_linear_4423_79583)" fill-opacity="0.2"/>
</g>
<g filter="url(#filter24_f_4423_79583)">
<path d="M516.254 -0.339844H518.634L381.466 232H379.086L516.254 -0.339844Z" fill="url(#paint30_linear_4423_79583)"/>
</g>
<g filter="url(#filter25_f_4423_79583)">
<path d="M516.254 -0.339844H518.634L381.466 232H379.086L516.254 -0.339844Z" fill="url(#paint31_linear_4423_79583)"/>
</g>
<g filter="url(#filter26_f_4423_79583)">
<path d="M516.254 -0.339844H518.634L381.466 232H379.086L516.254 -0.339844Z" fill="url(#paint32_linear_4423_79583)"/>
<path d="M516.254 -0.339844H518.634L381.466 232H379.086L516.254 -0.339844Z" fill="url(#paint33_linear_4423_79583)" fill-opacity="0.2"/>
</g>
<g filter="url(#filter27_f_4423_79583)">
<path d="M569.375 -0.339844H571.755L434.587 232H432.207L569.375 -0.339844Z" fill="url(#paint34_linear_4423_79583)"/>
</g>
</g>
</g>
<path d="M168.609 112.935V111.339C168.763 111.327 168.921 111.319 169.078 111.315C173.44 111.177 176.303 115.069 176.303 115.069C176.303 115.069 173.209 119.365 169.897 119.365C169.42 119.365 168.994 119.289 168.606 119.158V114.315C170.304 114.519 170.646 115.273 171.668 116.977L173.939 115.062C173.939 115.062 172.283 112.885 169.486 112.885C169.186 112.885 168.898 112.904 168.609 112.935ZM168.609 107.662V110.046C168.767 110.035 168.924 110.023 169.078 110.019C175.15 109.815 179.104 115 179.104 115C179.104 115 174.562 120.527 169.831 120.527C169.397 120.527 168.994 120.489 168.609 120.419V121.892C168.936 121.935 169.274 121.958 169.628 121.958C174.032 121.958 177.214 119.708 180.296 117.046C180.807 117.454 182.897 118.454 183.328 118.889C180.396 121.342 173.567 123.323 169.693 123.323C169.32 123.323 168.959 123.3 168.609 123.265V125.339H185.341V107.662H168.609ZM168.609 119.158V120.415C164.536 119.689 163.406 115.454 163.406 115.454C163.406 115.454 165.362 113.285 168.609 112.935V114.315C168.606 114.315 168.606 114.315 168.602 114.315C166.899 114.112 165.566 115.704 165.566 115.704C165.566 115.704 166.315 118.389 168.609 119.158ZM161.381 115.273C161.381 115.273 163.794 111.708 168.613 111.342V110.05C163.275 110.473 158.652 115 158.652 115C158.652 115 161.269 122.573 168.609 123.265V121.892C163.222 121.212 161.381 115.273 161.381 115.273Z" fill="#76B900"/>
<path d="M215.482 111V122.604H218.756V111H215.482ZM189.727 110.985V122.604H193.031V113.781H195.591C196.44 113.781 197.043 113.992 197.451 114.427C197.97 114.981 198.181 115.869 198.181 117.5V122.6H201.382V116.181C201.382 111.6 198.465 110.981 195.61 110.981H189.727M220.754 111V122.604H226.065C228.894 122.604 229.82 122.135 230.815 121.077C231.522 120.335 231.976 118.708 231.976 116.931C231.976 115.3 231.591 113.846 230.915 112.939C229.701 111.319 227.956 111 225.347 111H220.754V111ZM224.002 113.527H225.408C227.449 113.527 228.771 114.446 228.771 116.827C228.771 119.208 227.449 120.127 225.408 120.127H224.002V113.527V113.527ZM210.763 111L208.03 120.196L205.413 111H201.878L205.617 122.604H210.336L214.106 111H210.763V111ZM233.501 122.604H236.775V111.004H233.501V122.604ZM242.682 111.008L238.109 122.604H241.337L242.06 120.554H247.47L248.154 122.604H251.659L247.051 111.008H242.682ZM244.807 113.123L246.79 118.554H242.759L244.807 113.123Z" fill="white"/>
<path d="M253.339 122.958C252.774 122.958 252.316 122.5 252.316 121.935C252.316 121.369 252.774 120.912 253.339 120.912C253.904 120.912 254.361 121.369 254.361 121.935C254.361 122.5 253.904 122.958 253.339 122.958ZM253.339 121.108C252.881 121.108 252.528 121.462 252.528 121.935C252.528 122.408 252.881 122.762 253.339 122.762C253.796 122.762 254.149 122.408 254.149 121.935C254.149 121.462 253.8 121.108 253.339 121.108ZM253.523 122.477L253.327 122.054H253.212V122.477H252.97V121.389H253.412C253.631 121.389 253.773 121.55 253.773 121.731C253.773 121.881 253.677 121.977 253.573 122.019L253.804 122.477H253.523ZM253.381 121.589H253.212V121.873H253.381C253.473 121.873 253.531 121.808 253.531 121.731C253.531 121.654 253.469 121.589 253.381 121.589Z" fill="white"/>
</g>
<defs>
<filter id="filter0_d_4423_79583" x="-4" y="0" width="420" height="240" filterUnits="userSpaceOnUse" color-interpolation-filters="sRGB">
<feFlood flood-opacity="0" result="BackgroundImageFix"/>
<feColorMatrix in="SourceAlpha" type="matrix" values="0 0 0 0 0 0 0 0 0 0 0 0 0 0 0 0 0 0 127 0" result="hardAlpha"/>
<feOffset dy="4"/>
<feGaussianBlur stdDeviation="2"/>
<feComposite in2="hardAlpha" operator="out"/>
<feColorMatrix type="matrix" values="0 0 0 0 0 0 0 0 0 0 0 0 0 0 0 0 0 0 0.25 0"/>
<feBlend mode="normal" in2="BackgroundImageFix" result="effect1_dropShadow_4423_79583"/>
<feBlend mode="normal" in="SourceGraphic" in2="effect1_dropShadow_4423_79583" result="shape"/>
</filter>
<filter id="filter1_f_4423_79583" x="-202.148" y="-50.3398" width="239.549" height="332.34" filterUnits="userSpaceOnUse" color-interpolation-filters="sRGB">
<feFlood flood-opacity="0" result="BackgroundImageFix"/>
<feBlend mode="normal" in="SourceGraphic" in2="BackgroundImageFix" result="shape"/>
<feGaussianBlur stdDeviation="25" result="effect1_foregroundBlur_4423_79583"/>
</filter>
<filter id="filter2_f_4423_79583" x="-172.148" y="-20.3398" width="179.549" height="272.34" filterUnits="userSpaceOnUse" color-interpolation-filters="sRGB">
<feFlood flood-opacity="0" result="BackgroundImageFix"/>
<feBlend mode="normal" in="SourceGraphic" in2="BackgroundImageFix" result="shape"/>
<feGaussianBlur stdDeviation="10" result="effect1_foregroundBlur_4423_79583"/>
</filter>
<filter id="filter3_f_4423_79583" x="-149.021" y="-50.3398" width="239.549" height="332.34" filterUnits="userSpaceOnUse" color-interpolation-filters="sRGB">
<feFlood flood-opacity="0" result="BackgroundImageFix"/>
<feBlend mode="normal" in="SourceGraphic" in2="BackgroundImageFix" result="shape"/>
<feGaussianBlur stdDeviation="25" result="effect1_foregroundBlur_4423_79583"/>
</filter>
<filter id="filter4_f_4423_79583" x="-119.021" y="-20.3398" width="179.549" height="272.34" filterUnits="userSpaceOnUse" color-interpolation-filters="sRGB">
<feFlood flood-opacity="0" result="BackgroundImageFix"/>
<feBlend mode="normal" in="SourceGraphic" in2="BackgroundImageFix" result="shape"/>
<feGaussianBlur stdDeviation="10" result="effect1_foregroundBlur_4423_79583"/>
</filter>
<filter id="filter5_f_4423_79583" x="-101.021" y="-2.33984" width="143.549" height="236.34" filterUnits="userSpaceOnUse" color-interpolation-filters="sRGB">
<feFlood flood-opacity="0" result="BackgroundImageFix"/>
<feBlend mode="normal" in="SourceGraphic" in2="BackgroundImageFix" result="shape"/>
<feGaussianBlur stdDeviation="1" result="effect1_foregroundBlur_4423_79583"/>
</filter>
<filter id="filter6_f_4423_79583" x="-95.8984" y="-50.3398" width="239.549" height="332.34" filterUnits="userSpaceOnUse" color-interpolation-filters="sRGB">
<feFlood flood-opacity="0" result="BackgroundImageFix"/>
<feBlend mode="normal" in="SourceGraphic" in2="BackgroundImageFix" result="shape"/>
<feGaussianBlur stdDeviation="25" result="effect1_foregroundBlur_4423_79583"/>
</filter>
<filter id="filter7_f_4423_79583" x="-65.8984" y="-20.3398" width="179.549" height="272.34" filterUnits="userSpaceOnUse" color-interpolation-filters="sRGB">
<feFlood flood-opacity="0" result="BackgroundImageFix"/>
<feBlend mode="normal" in="SourceGraphic" in2="BackgroundImageFix" result="shape"/>
<feGaussianBlur stdDeviation="10" result="effect1_foregroundBlur_4423_79583"/>
</filter>
<filter id="filter8_f_4423_79583" x="-47.8984" y="-2.33984" width="143.549" height="236.34" filterUnits="userSpaceOnUse" color-interpolation-filters="sRGB">
<feFlood flood-opacity="0" result="BackgroundImageFix"/>
<feBlend mode="normal" in="SourceGraphic" in2="BackgroundImageFix" result="shape"/>
<feGaussianBlur stdDeviation="1" result="effect1_foregroundBlur_4423_79583"/>
</filter>
<filter id="filter9_f_4423_79583" x="-42.7734" y="-50.3398" width="239.549" height="332.34" filterUnits="userSpaceOnUse" color-interpolation-filters="sRGB">
<feFlood flood-opacity="0" result="BackgroundImageFix"/>
<feBlend mode="normal" in="SourceGraphic" in2="BackgroundImageFix" result="shape"/>
<feGaussianBlur stdDeviation="25" result="effect1_foregroundBlur_4423_79583"/>
</filter>
<filter id="filter10_f_4423_79583" x="-12.7734" y="-20.3398" width="179.549" height="272.34" filterUnits="userSpaceOnUse" color-interpolation-filters="sRGB">
<feFlood flood-opacity="0" result="BackgroundImageFix"/>
<feBlend mode="normal" in="SourceGraphic" in2="BackgroundImageFix" result="shape"/>
<feGaussianBlur stdDeviation="10" result="effect1_foregroundBlur_4423_79583"/>
</filter>
<filter id="filter11_f_4423_79583" x="5.22656" y="-2.33984" width="143.549" height="236.34" filterUnits="userSpaceOnUse" color-interpolation-filters="sRGB">
<feFlood flood-opacity="0" result="BackgroundImageFix"/>
<feBlend mode="normal" in="SourceGraphic" in2="BackgroundImageFix" result="shape"/>
<feGaussianBlur stdDeviation="1" result="effect1_foregroundBlur_4423_79583"/>
</filter>
<filter id="filter12_f_4423_79583" x="10.3457" y="-50.3398" width="239.549" height="332.34" filterUnits="userSpaceOnUse" color-interpolation-filters="sRGB">
<feFlood flood-opacity="0" result="BackgroundImageFix"/>
<feBlend mode="normal" in="SourceGraphic" in2="BackgroundImageFix" result="shape"/>
<feGaussianBlur stdDeviation="25" result="effect1_foregroundBlur_4423_79583"/>
</filter>
<filter id="filter13_f_4423_79583" x="40.3457" y="-20.3398" width="179.549" height="272.34" filterUnits="userSpaceOnUse" color-interpolation-filters="sRGB">
<feFlood flood-opacity="0" result="BackgroundImageFix"/>
<feBlend mode="normal" in="SourceGraphic" in2="BackgroundImageFix" result="shape"/>
<feGaussianBlur stdDeviation="10" result="effect1_foregroundBlur_4423_79583"/>
</filter>
<filter id="filter14_f_4423_79583" x="58.3457" y="-2.33984" width="143.549" height="236.34" filterUnits="userSpaceOnUse" color-interpolation-filters="sRGB">
<feFlood flood-opacity="0" result="BackgroundImageFix"/>
<feBlend mode="normal" in="SourceGraphic" in2="BackgroundImageFix" result="shape"/>
<feGaussianBlur stdDeviation="1" result="effect1_foregroundBlur_4423_79583"/>
</filter>
<filter id="filter15_f_4423_79583" x="169.717" y="-50.3398" width="239.549" height="332.34" filterUnits="userSpaceOnUse" color-interpolation-filters="sRGB">
<feFlood flood-opacity="0" result="BackgroundImageFix"/>
<feBlend mode="normal" in="SourceGraphic" in2="BackgroundImageFix" result="shape"/>
<feGaussianBlur stdDeviation="25" result="effect1_foregroundBlur_4423_79583"/>
</filter>
<filter id="filter16_f_4423_79583" x="199.717" y="-20.3398" width="179.549" height="272.34" filterUnits="userSpaceOnUse" color-interpolation-filters="sRGB">
<feFlood flood-opacity="0" result="BackgroundImageFix"/>
<feBlend mode="normal" in="SourceGraphic" in2="BackgroundImageFix" result="shape"/>
<feGaussianBlur stdDeviation="10" result="effect1_foregroundBlur_4423_79583"/>
</filter>
<filter id="filter17_f_4423_79583" x="217.717" y="-2.33984" width="143.549" height="236.34" filterUnits="userSpaceOnUse" color-interpolation-filters="sRGB">
<feFlood flood-opacity="0" result="BackgroundImageFix"/>
<feBlend mode="normal" in="SourceGraphic" in2="BackgroundImageFix" result="shape"/>
<feGaussianBlur stdDeviation="1" result="effect1_foregroundBlur_4423_79583"/>
</filter>
<filter id="filter18_f_4423_79583" x="222.838" y="-50.3398" width="239.549" height="332.34" filterUnits="userSpaceOnUse" color-interpolation-filters="sRGB">
<feFlood flood-opacity="0" result="BackgroundImageFix"/>
<feBlend mode="normal" in="SourceGraphic" in2="BackgroundImageFix" result="shape"/>
<feGaussianBlur stdDeviation="25" result="effect1_foregroundBlur_4423_79583"/>
</filter>
<filter id="filter19_f_4423_79583" x="252.838" y="-20.3398" width="179.549" height="272.34" filterUnits="userSpaceOnUse" color-interpolation-filters="sRGB">
<feFlood flood-opacity="0" result="BackgroundImageFix"/>
<feBlend mode="normal" in="SourceGraphic" in2="BackgroundImageFix" result="shape"/>
<feGaussianBlur stdDeviation="10" result="effect1_foregroundBlur_4423_79583"/>
</filter>
<filter id="filter20_f_4423_79583" x="270.838" y="-2.33984" width="143.549" height="236.34" filterUnits="userSpaceOnUse" color-interpolation-filters="sRGB">
<feFlood flood-opacity="0" result="BackgroundImageFix"/>
<feBlend mode="normal" in="SourceGraphic" in2="BackgroundImageFix" result="shape"/>
<feGaussianBlur stdDeviation="1" result="effect1_foregroundBlur_4423_79583"/>
</filter>
<filter id="filter21_f_4423_79583" x="275.965" y="-50.3398" width="239.549" height="332.34" filterUnits="userSpaceOnUse" color-interpolation-filters="sRGB">
<feFlood flood-opacity="0" result="BackgroundImageFix"/>
<feBlend mode="normal" in="SourceGraphic" in2="BackgroundImageFix" result="shape"/>
<feGaussianBlur stdDeviation="25" result="effect1_foregroundBlur_4423_79583"/>
</filter>
<filter id="filter22_f_4423_79583" x="305.965" y="-20.3398" width="179.549" height="272.34" filterUnits="userSpaceOnUse" color-interpolation-filters="sRGB">
<feFlood flood-opacity="0" result="BackgroundImageFix"/>
<feBlend mode="normal" in="SourceGraphic" in2="BackgroundImageFix" result="shape"/>
<feGaussianBlur stdDeviation="10" result="effect1_foregroundBlur_4423_79583"/>
</filter>
<filter id="filter23_f_4423_79583" x="323.965" y="-2.33984" width="143.549" height="236.34" filterUnits="userSpaceOnUse" color-interpolation-filters="sRGB">
<feFlood flood-opacity="0" result="BackgroundImageFix"/>
<feBlend mode="normal" in="SourceGraphic" in2="BackgroundImageFix" result="shape"/>
<feGaussianBlur stdDeviation="1" result="effect1_foregroundBlur_4423_79583"/>
</filter>
<filter id="filter24_f_4423_79583" x="329.086" y="-50.3398" width="239.549" height="332.34" filterUnits="userSpaceOnUse" color-interpolation-filters="sRGB">
<feFlood flood-opacity="0" result="BackgroundImageFix"/>
<feBlend mode="normal" in="SourceGraphic" in2="BackgroundImageFix" result="shape"/>
<feGaussianBlur stdDeviation="25" result="effect1_foregroundBlur_4423_79583"/>
</filter>
<filter id="filter25_f_4423_79583" x="359.086" y="-20.3398" width="179.549" height="272.34" filterUnits="userSpaceOnUse" color-interpolation-filters="sRGB">
<feFlood flood-opacity="0" result="BackgroundImageFix"/>
<feBlend mode="normal" in="SourceGraphic" in2="BackgroundImageFix" result="shape"/>
<feGaussianBlur stdDeviation="10" result="effect1_foregroundBlur_4423_79583"/>
</filter>
<filter id="filter26_f_4423_79583" x="377.086" y="-2.33984" width="143.549" height="236.34" filterUnits="userSpaceOnUse" color-interpolation-filters="sRGB">
<feFlood flood-opacity="0" result="BackgroundImageFix"/>
<feBlend mode="normal" in="SourceGraphic" in2="BackgroundImageFix" result="shape"/>
<feGaussianBlur stdDeviation="1" result="effect1_foregroundBlur_4423_79583"/>
</filter>
<filter id="filter27_f_4423_79583" x="382.207" y="-50.3398" width="239.549" height="332.34" filterUnits="userSpaceOnUse" color-interpolation-filters="sRGB">
<feFlood flood-opacity="0" result="BackgroundImageFix"/>
<feBlend mode="normal" in="SourceGraphic" in2="BackgroundImageFix" result="shape"/>
<feGaussianBlur stdDeviation="25" result="effect1_foregroundBlur_4423_79583"/>
</filter>
<linearGradient id="paint0_linear_4423_79583" x1="-27.9963" y1="55.3361" x2="-142.883" y2="180.391" gradientUnits="userSpaceOnUse">
<stop stop-color="#867D75"/>
<stop offset="0.46875" stop-color="#FFF1E4"/>
<stop offset="1" stop-color="#C19164"/>
</linearGradient>
<linearGradient id="paint1_linear_4423_79583" x1="-27.9963" y1="55.3361" x2="-142.883" y2="180.391" gradientUnits="userSpaceOnUse">
<stop stop-color="#867D75"/>
<stop offset="0.46875" stop-color="#FFF1E4"/>
<stop offset="1" stop-color="#C19164"/>
</linearGradient>
<linearGradient id="paint2_linear_4423_79583" x1="25.1307" y1="55.3361" x2="-89.7558" y2="180.391" gradientUnits="userSpaceOnUse">
<stop stop-color="#867D75"/>
<stop offset="0.46875" stop-color="#FFF1E4"/>
<stop offset="1" stop-color="#C19164"/>
</linearGradient>
<linearGradient id="paint3_linear_4423_79583" x1="25.1307" y1="55.3361" x2="-89.7558" y2="180.391" gradientUnits="userSpaceOnUse">
<stop stop-color="#867D75"/>
<stop offset="0.46875" stop-color="#FFF1E4"/>
<stop offset="1" stop-color="#C19164"/>
</linearGradient>
<linearGradient id="paint4_linear_4423_79583" x1="14.7537" y1="48.1461" x2="-90.6853" y2="181.977" gradientUnits="userSpaceOnUse">
<stop stop-color="#867D75"/>
<stop offset="0.46875" stop-color="#FFF1E4"/>
<stop offset="1" stop-color="#867D75"/>
</linearGradient>
<linearGradient id="paint5_linear_4423_79583" x1="38.5963" y1="2.74563" x2="-99.0481" y2="227.166" gradientUnits="userSpaceOnUse">
<stop/>
<stop offset="0.478942" stop-opacity="0"/>
<stop offset="1"/>
</linearGradient>
<linearGradient id="paint6_linear_4423_79583" x1="78.2537" y1="55.3361" x2="-36.6328" y2="180.391" gradientUnits="userSpaceOnUse">
<stop stop-color="#867D75"/>
<stop offset="0.46875" stop-color="#FFF1E4"/>
<stop offset="1" stop-color="#C19164"/>
</linearGradient>
<linearGradient id="paint7_linear_4423_79583" x1="78.2537" y1="55.3361" x2="-36.6328" y2="180.391" gradientUnits="userSpaceOnUse">
<stop stop-color="#867D75"/>
<stop offset="0.46875" stop-color="#FFF1E4"/>
<stop offset="1" stop-color="#C19164"/>
</linearGradient>
<linearGradient id="paint8_linear_4423_79583" x1="67.8768" y1="48.1461" x2="-37.5623" y2="181.977" gradientUnits="userSpaceOnUse">
<stop stop-color="#867D75"/>
<stop offset="0.46875" stop-color="#FFF1E4"/>
<stop offset="1" stop-color="#867D75"/>
</linearGradient>
<linearGradient id="paint9_linear_4423_79583" x1="91.7194" y1="2.74563" x2="-45.9251" y2="227.166" gradientUnits="userSpaceOnUse">
<stop/>
<stop offset="0.478942" stop-opacity="0"/>
<stop offset="1"/>
</linearGradient>
<linearGradient id="paint10_linear_4423_79583" x1="131.379" y1="55.3361" x2="16.4922" y2="180.391" gradientUnits="userSpaceOnUse">
<stop stop-color="#867D75"/>
<stop offset="0.46875" stop-color="#FFF1E4"/>
<stop offset="1" stop-color="#C19164"/>
</linearGradient>
<linearGradient id="paint11_linear_4423_79583" x1="131.379" y1="55.3361" x2="16.4922" y2="180.391" gradientUnits="userSpaceOnUse">
<stop stop-color="#867D75"/>
<stop offset="0.46875" stop-color="#FFF1E4"/>
<stop offset="1" stop-color="#C19164"/>
</linearGradient>
<linearGradient id="paint12_linear_4423_79583" x1="121.002" y1="48.1461" x2="15.5627" y2="181.977" gradientUnits="userSpaceOnUse">
<stop stop-color="#867D75"/>
<stop offset="0.46875" stop-color="#FFF1E4"/>
<stop offset="1" stop-color="#867D75"/>
</linearGradient>
<linearGradient id="paint13_linear_4423_79583" x1="144.844" y1="2.74563" x2="7.1999" y2="227.166" gradientUnits="userSpaceOnUse">
<stop/>
<stop offset="0.478942" stop-opacity="0"/>
<stop offset="1"/>
</linearGradient>
<linearGradient id="paint14_linear_4423_79583" x1="184.498" y1="55.3361" x2="69.6114" y2="180.391" gradientUnits="userSpaceOnUse">
<stop stop-color="#867D75"/>
<stop offset="0.46875" stop-color="#FFF1E4"/>
<stop offset="1" stop-color="#C19164"/>
</linearGradient>
<linearGradient id="paint15_linear_4423_79583" x1="184.498" y1="55.3361" x2="69.6114" y2="180.391" gradientUnits="userSpaceOnUse">
<stop stop-color="#867D75"/>
<stop offset="0.46875" stop-color="#FFF1E4"/>
<stop offset="1" stop-color="#C19164"/>
</linearGradient>
<linearGradient id="paint16_linear_4423_79583" x1="174.121" y1="48.1461" x2="68.6818" y2="181.977" gradientUnits="userSpaceOnUse">
<stop stop-color="#867D75"/>
<stop offset="0.46875" stop-color="#FFF1E4"/>
<stop offset="1" stop-color="#867D75"/>
</linearGradient>
<linearGradient id="paint17_linear_4423_79583" x1="197.964" y1="2.74563" x2="60.319" y2="227.166" gradientUnits="userSpaceOnUse">
<stop/>
<stop offset="0.478942" stop-opacity="0"/>
<stop offset="1"/>
</linearGradient>
<linearGradient id="paint18_linear_4423_79583" x1="343.869" y1="55.3361" x2="228.982" y2="180.391" gradientUnits="userSpaceOnUse">
<stop stop-color="#867D75"/>
<stop offset="0.46875" stop-color="#FFF1E4"/>
<stop offset="1" stop-color="#C19164"/>
</linearGradient>
<linearGradient id="paint19_linear_4423_79583" x1="343.869" y1="55.3361" x2="228.982" y2="180.391" gradientUnits="userSpaceOnUse">
<stop stop-color="#867D75"/>
<stop offset="0.46875" stop-color="#FFF1E4"/>
<stop offset="1" stop-color="#C19164"/>
</linearGradient>
<linearGradient id="paint20_linear_4423_79583" x1="333.492" y1="48.1461" x2="228.053" y2="181.977" gradientUnits="userSpaceOnUse">
<stop stop-color="#867D75"/>
<stop offset="0.46875" stop-color="#E5D8CD"/>
<stop offset="1" stop-color="#867D75"/>
</linearGradient>
<linearGradient id="paint21_linear_4423_79583" x1="357.335" y1="2.74563" x2="219.69" y2="227.166" gradientUnits="userSpaceOnUse">
<stop/>
<stop offset="0.478942" stop-opacity="0"/>
<stop offset="1"/>
</linearGradient>
<linearGradient id="paint22_linear_4423_79583" x1="396.99" y1="55.3361" x2="282.104" y2="180.391" gradientUnits="userSpaceOnUse">
<stop stop-color="#867D75"/>
<stop offset="0.46875" stop-color="#FFF1E4"/>
<stop offset="1" stop-color="#C19164"/>
</linearGradient>
<linearGradient id="paint23_linear_4423_79583" x1="396.99" y1="55.3361" x2="282.104" y2="180.391" gradientUnits="userSpaceOnUse">
<stop stop-color="#867D75"/>
<stop offset="0.46875" stop-color="#FFF1E4"/>
<stop offset="1" stop-color="#C19164"/>
</linearGradient>
<linearGradient id="paint24_linear_4423_79583" x1="386.613" y1="48.1461" x2="281.174" y2="181.977" gradientUnits="userSpaceOnUse">
<stop stop-color="#867D75"/>
<stop offset="0.46875" stop-color="#FFF1E4"/>
<stop offset="1" stop-color="#867D75"/>
</linearGradient>
<linearGradient id="paint25_linear_4423_79583" x1="410.456" y1="2.74563" x2="272.811" y2="227.166" gradientUnits="userSpaceOnUse">
<stop/>
<stop offset="0.478942" stop-opacity="0"/>
<stop offset="1"/>
</linearGradient>
<linearGradient id="paint26_linear_4423_79583" x1="450.117" y1="55.3361" x2="335.23" y2="180.391" gradientUnits="userSpaceOnUse">
<stop stop-color="#867D75"/>
<stop offset="0.46875" stop-color="#FFF1E4"/>
<stop offset="1" stop-color="#C19164"/>
</linearGradient>
<linearGradient id="paint27_linear_4423_79583" x1="450.117" y1="55.3361" x2="335.23" y2="180.391" gradientUnits="userSpaceOnUse">
<stop stop-color="#867D75"/>
<stop offset="0.46875" stop-color="#FFF1E4"/>
<stop offset="1" stop-color="#C19164"/>
</linearGradient>
<linearGradient id="paint28_linear_4423_79583" x1="439.74" y1="48.1461" x2="334.301" y2="181.977" gradientUnits="userSpaceOnUse">
<stop stop-color="#867D75"/>
<stop offset="0.46875" stop-color="#FFF1E4"/>
<stop offset="1" stop-color="#867D75"/>
</linearGradient>
<linearGradient id="paint29_linear_4423_79583" x1="463.583" y1="2.74563" x2="325.938" y2="227.166" gradientUnits="userSpaceOnUse">
<stop/>
<stop offset="0.478942" stop-opacity="0"/>
<stop offset="1"/>
</linearGradient>
<linearGradient id="paint30_linear_4423_79583" x1="503.238" y1="55.3361" x2="388.352" y2="180.391" gradientUnits="userSpaceOnUse">
<stop stop-color="#867D75"/>
<stop offset="0.46875" stop-color="#FFF1E4"/>
<stop offset="1" stop-color="#C19164"/>
</linearGradient>
<linearGradient id="paint31_linear_4423_79583" x1="503.238" y1="55.3361" x2="388.352" y2="180.391" gradientUnits="userSpaceOnUse">
<stop stop-color="#867D75"/>
<stop offset="0.46875" stop-color="#FFF1E4"/>
<stop offset="1" stop-color="#C19164"/>
</linearGradient>
<linearGradient id="paint32_linear_4423_79583" x1="492.861" y1="48.1461" x2="387.422" y2="181.977" gradientUnits="userSpaceOnUse">
<stop stop-color="#867D75"/>
<stop offset="0.46875" stop-color="#FFF1E4"/>
<stop offset="1" stop-color="#867D75"/>
</linearGradient>
<linearGradient id="paint33_linear_4423_79583" x1="516.704" y1="2.74563" x2="379.059" y2="227.166" gradientUnits="userSpaceOnUse">
<stop/>
<stop offset="0.478942" stop-opacity="0"/>
<stop offset="1"/>
</linearGradient>
<linearGradient id="paint34_linear_4423_79583" x1="556.359" y1="55.3361" x2="441.473" y2="180.391" gradientUnits="userSpaceOnUse">
<stop stop-color="#867D75"/>
<stop offset="0.46875" stop-color="#FFF1E4"/>
<stop offset="1" stop-color="#C19164"/>
</linearGradient>
<clipPath id="clip0_4423_79583">
<rect width="412" height="232" fill="white"/>
</clipPath>
</defs>
</svg>
