<svg width="26" height="20" viewBox="0 0 26 20" fill="none" xmlns="http://www.w3.org/2000/svg">
<rect x="0.75" y="0.75" width="24.5" height="18.5" stroke="currentColor" stroke-width="1.5"/>
<mask id="mask0_3216_47491" style="mask-type:alpha" maskUnits="userSpaceOnUse" x="6" y="3" width="14" height="14">
<rect x="6" y="3" width="14" height="14" fill="#D9D9D9"/>
</mask>
<g mask="url(#mask0_3216_47491)">
<path d="M13.0002 7.08333C12.6793 7.08333 12.4047 6.9691 12.1762 6.74063C11.9477 6.51215 11.8335 6.2375 11.8335 5.91667C11.8335 5.59583 11.9477 5.32118 12.1762 5.09271C12.4047 4.86424 12.6793 4.75 13.0002 4.75C13.321 4.75 13.5956 4.86424 13.8241 5.09271C14.0526 5.32118 14.1668 5.59583 14.1668 5.91667C14.1668 6.2375 14.0526 6.51215 13.8241 6.74063C13.5956 6.9691 13.321 7.08333 13.0002 7.08333ZM12.1252 15.25V8.25H13.8752V15.25H12.1252Z" fill="currentColor"/>
</g>
</svg>
