<svg width="790" height="376" viewBox="0 0 790 376" fill="none" xmlns="http://www.w3.org/2000/svg">
<rect width="790" height="376" fill="white"/>
<g clip-path="url(#clip0_2855_50756)">
<rect width="790" height="376" fill="#292929"/>
<g opacity="0.3" filter="url(#filter0_d_2855_50756)">
<mask id="mask0_2855_50756" style="mask-type:alpha" maskUnits="userSpaceOnUse" x="0" y="0" width="790" height="376">
<rect width="790" height="376" fill="black"/>
</mask>
<g mask="url(#mask0_2855_50756)">
<g filter="url(#filter1_f_2855_50756)">
<path d="M16.7066 -0.339844H20.7648L-213.152 375.66H-217.21L16.7066 -0.339844Z" fill="url(#paint0_linear_2855_50756)"/>
</g>
<g filter="url(#filter2_f_2855_50756)">
<path d="M16.7066 -0.339844H20.7648L-213.152 375.66H-217.21L16.7066 -0.339844Z" fill="url(#paint1_linear_2855_50756)"/>
</g>
<g filter="url(#filter3_f_2855_50756)">
<path d="M16.7066 -0.339844H20.7648L-213.152 375.66H-217.21L16.7066 -0.339844Z" fill="url(#paint2_linear_2855_50756)"/>
<path d="M16.7066 -0.339844H20.7648L-213.152 375.66H-217.21L16.7066 -0.339844Z" fill="url(#paint3_linear_2855_50756)" fill-opacity="0.2"/>
</g>
<g filter="url(#filter4_f_2855_50756)">
<path d="M107.305 -0.339844H111.363L-122.554 375.66H-126.612L107.305 -0.339844Z" fill="url(#paint4_linear_2855_50756)"/>
</g>
<g filter="url(#filter5_f_2855_50756)">
<path d="M107.305 -0.339844H111.363L-122.554 375.66H-126.612L107.305 -0.339844Z" fill="url(#paint5_linear_2855_50756)"/>
</g>
<g filter="url(#filter6_f_2855_50756)">
<path d="M107.305 -0.339844H111.363L-122.554 375.66H-126.612L107.305 -0.339844Z" fill="url(#paint6_linear_2855_50756)"/>
<path d="M107.305 -0.339844H111.363L-122.554 375.66H-126.612L107.305 -0.339844Z" fill="url(#paint7_linear_2855_50756)" fill-opacity="0.2"/>
</g>
<g filter="url(#filter7_f_2855_50756)">
<path d="M197.895 -0.339844H201.953L-31.9642 375.66H-36.0225L197.895 -0.339844Z" fill="url(#paint8_linear_2855_50756)"/>
</g>
<g filter="url(#filter8_f_2855_50756)">
<path d="M197.895 -0.339844H201.953L-31.9642 375.66H-36.0225L197.895 -0.339844Z" fill="url(#paint9_linear_2855_50756)"/>
</g>
<g filter="url(#filter9_f_2855_50756)">
<path d="M197.895 -0.339844H201.953L-31.9642 375.66H-36.0225L197.895 -0.339844Z" fill="url(#paint10_linear_2855_50756)"/>
<path d="M197.895 -0.339844H201.953L-31.9642 375.66H-36.0225L197.895 -0.339844Z" fill="url(#paint11_linear_2855_50756)" fill-opacity="0.2"/>
</g>
<g filter="url(#filter10_f_2855_50756)">
<path d="M288.489 -0.339844H292.547L58.6301 375.66H54.5718L288.489 -0.339844Z" fill="url(#paint12_linear_2855_50756)"/>
</g>
<g filter="url(#filter11_f_2855_50756)">
<path d="M288.489 -0.339844H292.547L58.6301 375.66H54.5718L288.489 -0.339844Z" fill="url(#paint13_linear_2855_50756)"/>
</g>
<g filter="url(#filter12_f_2855_50756)">
<path d="M288.489 -0.339844H292.547L58.6301 375.66H54.5718L288.489 -0.339844Z" fill="url(#paint14_linear_2855_50756)"/>
<path d="M288.489 -0.339844H292.547L58.6301 375.66H54.5718L288.489 -0.339844Z" fill="url(#paint15_linear_2855_50756)" fill-opacity="0.2"/>
</g>
<g filter="url(#filter13_f_2855_50756)">
<path d="M379.079 -0.339844H383.137L149.22 375.66H145.162L379.079 -0.339844Z" fill="url(#paint16_linear_2855_50756)"/>
</g>
<g filter="url(#filter14_f_2855_50756)">
<path d="M379.079 -0.339844H383.137L149.22 375.66H145.162L379.079 -0.339844Z" fill="url(#paint17_linear_2855_50756)"/>
</g>
<g filter="url(#filter15_f_2855_50756)">
<path d="M379.079 -0.339844H383.137L149.22 375.66H145.162L379.079 -0.339844Z" fill="url(#paint18_linear_2855_50756)"/>
<path d="M379.079 -0.339844H383.137L149.22 375.66H145.162L379.079 -0.339844Z" fill="url(#paint19_linear_2855_50756)" fill-opacity="0.2"/>
</g>
<g filter="url(#filter16_f_2855_50756)">
<path d="M650.857 -0.339844H654.916L420.999 375.66H416.94L650.857 -0.339844Z" fill="url(#paint20_linear_2855_50756)"/>
</g>
<g filter="url(#filter17_f_2855_50756)">
<path d="M650.857 -0.339844H654.916L420.999 375.66H416.94L650.857 -0.339844Z" fill="url(#paint21_linear_2855_50756)"/>
</g>
<g filter="url(#filter18_f_2855_50756)">
<path d="M650.857 -0.339844H654.916L420.999 375.66H416.94L650.857 -0.339844Z" fill="url(#paint22_linear_2855_50756)"/>
<path d="M650.857 -0.339844H654.916L420.999 375.66H416.94L650.857 -0.339844Z" fill="url(#paint23_linear_2855_50756)" fill-opacity="0.2"/>
</g>
<g filter="url(#filter19_f_2855_50756)">
<path d="M741.447 -0.339844H745.506L511.589 375.66H507.53L741.447 -0.339844Z" fill="url(#paint24_linear_2855_50756)"/>
</g>
<g filter="url(#filter20_f_2855_50756)">
<path d="M741.447 -0.339844H745.506L511.589 375.66H507.53L741.447 -0.339844Z" fill="url(#paint25_linear_2855_50756)"/>
</g>
<g filter="url(#filter21_f_2855_50756)">
<path d="M741.447 -0.339844H745.506L511.589 375.66H507.53L741.447 -0.339844Z" fill="url(#paint26_linear_2855_50756)"/>
<path d="M741.447 -0.339844H745.506L511.589 375.66H507.53L741.447 -0.339844Z" fill="url(#paint27_linear_2855_50756)" fill-opacity="0.2"/>
</g>
<g filter="url(#filter22_f_2855_50756)">
<path d="M832.045 -0.339844H836.104L602.187 375.66H598.128L832.045 -0.339844Z" fill="url(#paint28_linear_2855_50756)"/>
</g>
<g filter="url(#filter23_f_2855_50756)">
<path d="M832.045 -0.339844H836.104L602.187 375.66H598.128L832.045 -0.339844Z" fill="url(#paint29_linear_2855_50756)"/>
</g>
<g filter="url(#filter24_f_2855_50756)">
<path d="M832.045 -0.339844H836.104L602.187 375.66H598.128L832.045 -0.339844Z" fill="url(#paint30_linear_2855_50756)"/>
<path d="M832.045 -0.339844H836.104L602.187 375.66H598.128L832.045 -0.339844Z" fill="url(#paint31_linear_2855_50756)" fill-opacity="0.2"/>
</g>
<g filter="url(#filter25_f_2855_50756)">
<path d="M922.632 -0.339844H926.69L692.773 375.66H688.715L922.632 -0.339844Z" fill="url(#paint32_linear_2855_50756)"/>
</g>
<g filter="url(#filter26_f_2855_50756)">
<path d="M922.632 -0.339844H926.69L692.773 375.66H688.715L922.632 -0.339844Z" fill="url(#paint33_linear_2855_50756)"/>
</g>
<g filter="url(#filter27_f_2855_50756)">
<path d="M922.632 -0.339844H926.69L692.773 375.66H688.715L922.632 -0.339844Z" fill="url(#paint34_linear_2855_50756)"/>
<path d="M922.632 -0.339844H926.69L692.773 375.66H688.715L922.632 -0.339844Z" fill="url(#paint35_linear_2855_50756)" fill-opacity="0.2"/>
</g>
<g filter="url(#filter28_f_2855_50756)">
<path d="M1013.23 -0.339844H1017.28L783.367 375.66H779.309L1013.23 -0.339844Z" fill="url(#paint36_linear_2855_50756)"/>
</g>
<g filter="url(#filter29_f_2855_50756)">
<path d="M1013.23 -0.339844H1017.28L783.367 375.66H779.309L1013.23 -0.339844Z" fill="url(#paint37_linear_2855_50756)"/>
</g>
<g filter="url(#filter30_f_2855_50756)">
<path d="M1013.23 -0.339844H1017.28L783.367 375.66H779.309L1013.23 -0.339844Z" fill="url(#paint38_linear_2855_50756)"/>
<path d="M1013.23 -0.339844H1017.28L783.367 375.66H779.309L1013.23 -0.339844Z" fill="url(#paint39_linear_2855_50756)" fill-opacity="0.2"/>
</g>
<rect x="394" width="396" height="376" fill="url(#paint40_linear_2855_50756)"/>
<rect x="395" y="376" width="395" height="376" transform="rotate(-180 395 376)" fill="url(#paint41_linear_2855_50756)"/>
</g>
</g>
<path d="M329.978 181.913V179.188C330.241 179.168 330.51 179.155 330.78 179.148C338.244 178.912 343.143 185.557 343.143 185.557C343.143 185.557 337.849 192.892 332.181 192.892C331.365 192.892 330.635 192.761 329.971 192.538V184.27C332.878 184.618 333.463 185.905 335.212 188.814L339.099 185.544C339.099 185.544 336.264 181.828 331.477 181.828C330.964 181.828 330.471 181.86 329.978 181.913ZM329.978 172.91V176.981C330.247 176.962 330.517 176.942 330.78 176.935C341.17 176.587 347.937 185.439 347.937 185.439C347.937 185.439 340.164 194.875 332.069 194.875C331.326 194.875 330.635 194.81 329.978 194.692V197.207C330.537 197.279 331.115 197.318 331.72 197.318C339.257 197.318 344.702 193.477 349.976 188.933C350.85 189.629 354.428 191.336 355.164 192.078C350.147 196.268 338.461 199.649 331.832 199.649C331.194 199.649 330.576 199.61 329.978 199.551V203.09H358.61V172.91H329.978ZM329.978 192.538V194.685C323.007 193.444 321.074 186.214 321.074 186.214C321.074 186.214 324.421 182.511 329.978 181.913V184.27C329.971 184.27 329.971 184.27 329.965 184.27C327.051 183.922 324.769 186.641 324.769 186.641C324.769 186.641 326.052 191.224 329.978 192.538ZM317.608 185.905C317.608 185.905 321.738 179.818 329.984 179.194V176.988C320.85 177.71 312.939 185.439 312.939 185.439C312.939 185.439 317.417 198.369 329.978 199.551V197.207C320.758 196.044 317.608 185.905 317.608 185.905Z" fill="#76B900"/>
<path d="M410.187 178.61V198.421H415.79V178.61H410.187ZM366.114 178.584V198.421H371.769V183.358H376.149C377.602 183.358 378.635 183.719 379.332 184.461C380.22 185.406 380.581 186.923 380.581 189.708V198.415H386.059V187.455C386.059 179.634 381.068 178.577 376.182 178.577H366.114M419.209 178.61V198.421H428.298C433.138 198.421 434.723 197.62 436.426 195.814C437.636 194.547 438.412 191.769 438.412 188.736C438.412 185.951 437.754 183.469 436.597 181.92C434.519 179.155 431.533 178.61 427.068 178.61H419.209V178.61ZM424.766 182.924H427.173C430.665 182.924 432.927 184.494 432.927 188.558C432.927 192.623 430.665 194.193 427.173 194.193H424.766V182.924V182.924ZM402.111 178.61L397.436 194.311L392.958 178.61H386.907L393.306 198.421H401.382L407.833 178.61H402.111V178.61ZM441.022 198.421H446.625V178.617H441.022V198.421ZM456.733 178.623L448.907 198.421H454.431L455.667 194.921H464.927L466.097 198.421H472.095L464.21 178.623H456.733ZM460.369 182.235L463.763 191.507H456.864L460.369 182.235Z" fill="white"/>
<path d="M474.968 199.026C474.001 199.026 473.219 198.244 473.219 197.279C473.219 196.314 474.001 195.532 474.968 195.532C475.935 195.532 476.717 196.314 476.717 197.279C476.717 198.244 475.935 199.026 474.968 199.026ZM474.968 195.867C474.185 195.867 473.58 196.471 473.58 197.279C473.58 198.087 474.185 198.691 474.968 198.691C475.751 198.691 476.356 198.087 476.356 197.279C476.356 196.471 475.757 195.867 474.968 195.867ZM475.284 198.205L474.948 197.483H474.751V198.205H474.337V196.346H475.093C475.468 196.346 475.711 196.622 475.711 196.931C475.711 197.187 475.547 197.351 475.369 197.423L475.764 198.205H475.284ZM475.04 196.688H474.751V197.174H475.04C475.198 197.174 475.297 197.062 475.297 196.931C475.297 196.8 475.192 196.688 475.04 196.688Z" fill="white"/>
</g>
<defs>
<filter id="filter0_d_2855_50756" x="-4" y="0" width="798" height="384" filterUnits="userSpaceOnUse" color-interpolation-filters="sRGB">
<feFlood flood-opacity="0" result="BackgroundImageFix"/>
<feColorMatrix in="SourceAlpha" type="matrix" values="0 0 0 0 0 0 0 0 0 0 0 0 0 0 0 0 0 0 127 0" result="hardAlpha"/>
<feOffset dy="4"/>
<feGaussianBlur stdDeviation="2"/>
<feComposite in2="hardAlpha" operator="out"/>
<feColorMatrix type="matrix" values="0 0 0 0 0 0 0 0 0 0 0 0 0 0 0 0 0 0 0.25 0"/>
<feBlend mode="normal" in2="BackgroundImageFix" result="effect1_dropShadow_2855_50756"/>
<feBlend mode="normal" in="SourceGraphic" in2="effect1_dropShadow_2855_50756" result="shape"/>
</filter>
<filter id="filter1_f_2855_50756" x="-267.21" y="-50.3398" width="337.975" height="476" filterUnits="userSpaceOnUse" color-interpolation-filters="sRGB">
<feFlood flood-opacity="0" result="BackgroundImageFix"/>
<feBlend mode="normal" in="SourceGraphic" in2="BackgroundImageFix" result="shape"/>
<feGaussianBlur stdDeviation="25" result="effect1_foregroundBlur_2855_50756"/>
</filter>
<filter id="filter2_f_2855_50756" x="-237.21" y="-20.3398" width="277.975" height="416" filterUnits="userSpaceOnUse" color-interpolation-filters="sRGB">
<feFlood flood-opacity="0" result="BackgroundImageFix"/>
<feBlend mode="normal" in="SourceGraphic" in2="BackgroundImageFix" result="shape"/>
<feGaussianBlur stdDeviation="10" result="effect1_foregroundBlur_2855_50756"/>
</filter>
<filter id="filter3_f_2855_50756" x="-219.21" y="-2.33984" width="241.975" height="380" filterUnits="userSpaceOnUse" color-interpolation-filters="sRGB">
<feFlood flood-opacity="0" result="BackgroundImageFix"/>
<feBlend mode="normal" in="SourceGraphic" in2="BackgroundImageFix" result="shape"/>
<feGaussianBlur stdDeviation="1" result="effect1_foregroundBlur_2855_50756"/>
</filter>
<filter id="filter4_f_2855_50756" x="-176.612" y="-50.3398" width="337.975" height="476" filterUnits="userSpaceOnUse" color-interpolation-filters="sRGB">
<feFlood flood-opacity="0" result="BackgroundImageFix"/>
<feBlend mode="normal" in="SourceGraphic" in2="BackgroundImageFix" result="shape"/>
<feGaussianBlur stdDeviation="25" result="effect1_foregroundBlur_2855_50756"/>
</filter>
<filter id="filter5_f_2855_50756" x="-146.612" y="-20.3398" width="277.975" height="416" filterUnits="userSpaceOnUse" color-interpolation-filters="sRGB">
<feFlood flood-opacity="0" result="BackgroundImageFix"/>
<feBlend mode="normal" in="SourceGraphic" in2="BackgroundImageFix" result="shape"/>
<feGaussianBlur stdDeviation="10" result="effect1_foregroundBlur_2855_50756"/>
</filter>
<filter id="filter6_f_2855_50756" x="-128.612" y="-2.33984" width="241.975" height="380" filterUnits="userSpaceOnUse" color-interpolation-filters="sRGB">
<feFlood flood-opacity="0" result="BackgroundImageFix"/>
<feBlend mode="normal" in="SourceGraphic" in2="BackgroundImageFix" result="shape"/>
<feGaussianBlur stdDeviation="1" result="effect1_foregroundBlur_2855_50756"/>
</filter>
<filter id="filter7_f_2855_50756" x="-86.0225" y="-50.3398" width="337.975" height="476" filterUnits="userSpaceOnUse" color-interpolation-filters="sRGB">
<feFlood flood-opacity="0" result="BackgroundImageFix"/>
<feBlend mode="normal" in="SourceGraphic" in2="BackgroundImageFix" result="shape"/>
<feGaussianBlur stdDeviation="25" result="effect1_foregroundBlur_2855_50756"/>
</filter>
<filter id="filter8_f_2855_50756" x="-56.0225" y="-20.3398" width="277.975" height="416" filterUnits="userSpaceOnUse" color-interpolation-filters="sRGB">
<feFlood flood-opacity="0" result="BackgroundImageFix"/>
<feBlend mode="normal" in="SourceGraphic" in2="BackgroundImageFix" result="shape"/>
<feGaussianBlur stdDeviation="10" result="effect1_foregroundBlur_2855_50756"/>
</filter>
<filter id="filter9_f_2855_50756" x="-38.0225" y="-2.33984" width="241.975" height="380" filterUnits="userSpaceOnUse" color-interpolation-filters="sRGB">
<feFlood flood-opacity="0" result="BackgroundImageFix"/>
<feBlend mode="normal" in="SourceGraphic" in2="BackgroundImageFix" result="shape"/>
<feGaussianBlur stdDeviation="1" result="effect1_foregroundBlur_2855_50756"/>
</filter>
<filter id="filter10_f_2855_50756" x="4.57178" y="-50.3398" width="337.975" height="476" filterUnits="userSpaceOnUse" color-interpolation-filters="sRGB">
<feFlood flood-opacity="0" result="BackgroundImageFix"/>
<feBlend mode="normal" in="SourceGraphic" in2="BackgroundImageFix" result="shape"/>
<feGaussianBlur stdDeviation="25" result="effect1_foregroundBlur_2855_50756"/>
</filter>
<filter id="filter11_f_2855_50756" x="34.5718" y="-20.3398" width="277.975" height="416" filterUnits="userSpaceOnUse" color-interpolation-filters="sRGB">
<feFlood flood-opacity="0" result="BackgroundImageFix"/>
<feBlend mode="normal" in="SourceGraphic" in2="BackgroundImageFix" result="shape"/>
<feGaussianBlur stdDeviation="10" result="effect1_foregroundBlur_2855_50756"/>
</filter>
<filter id="filter12_f_2855_50756" x="52.5718" y="-2.33984" width="241.975" height="380" filterUnits="userSpaceOnUse" color-interpolation-filters="sRGB">
<feFlood flood-opacity="0" result="BackgroundImageFix"/>
<feBlend mode="normal" in="SourceGraphic" in2="BackgroundImageFix" result="shape"/>
<feGaussianBlur stdDeviation="1" result="effect1_foregroundBlur_2855_50756"/>
</filter>
<filter id="filter13_f_2855_50756" x="95.1621" y="-50.3398" width="337.975" height="476" filterUnits="userSpaceOnUse" color-interpolation-filters="sRGB">
<feFlood flood-opacity="0" result="BackgroundImageFix"/>
<feBlend mode="normal" in="SourceGraphic" in2="BackgroundImageFix" result="shape"/>
<feGaussianBlur stdDeviation="25" result="effect1_foregroundBlur_2855_50756"/>
</filter>
<filter id="filter14_f_2855_50756" x="125.162" y="-20.3398" width="277.975" height="416" filterUnits="userSpaceOnUse" color-interpolation-filters="sRGB">
<feFlood flood-opacity="0" result="BackgroundImageFix"/>
<feBlend mode="normal" in="SourceGraphic" in2="BackgroundImageFix" result="shape"/>
<feGaussianBlur stdDeviation="10" result="effect1_foregroundBlur_2855_50756"/>
</filter>
<filter id="filter15_f_2855_50756" x="143.162" y="-2.33984" width="241.975" height="380" filterUnits="userSpaceOnUse" color-interpolation-filters="sRGB">
<feFlood flood-opacity="0" result="BackgroundImageFix"/>
<feBlend mode="normal" in="SourceGraphic" in2="BackgroundImageFix" result="shape"/>
<feGaussianBlur stdDeviation="1" result="effect1_foregroundBlur_2855_50756"/>
</filter>
<filter id="filter16_f_2855_50756" x="366.94" y="-50.3398" width="337.975" height="476" filterUnits="userSpaceOnUse" color-interpolation-filters="sRGB">
<feFlood flood-opacity="0" result="BackgroundImageFix"/>
<feBlend mode="normal" in="SourceGraphic" in2="BackgroundImageFix" result="shape"/>
<feGaussianBlur stdDeviation="25" result="effect1_foregroundBlur_2855_50756"/>
</filter>
<filter id="filter17_f_2855_50756" x="396.94" y="-20.3398" width="277.975" height="416" filterUnits="userSpaceOnUse" color-interpolation-filters="sRGB">
<feFlood flood-opacity="0" result="BackgroundImageFix"/>
<feBlend mode="normal" in="SourceGraphic" in2="BackgroundImageFix" result="shape"/>
<feGaussianBlur stdDeviation="10" result="effect1_foregroundBlur_2855_50756"/>
</filter>
<filter id="filter18_f_2855_50756" x="414.94" y="-2.33984" width="241.975" height="380" filterUnits="userSpaceOnUse" color-interpolation-filters="sRGB">
<feFlood flood-opacity="0" result="BackgroundImageFix"/>
<feBlend mode="normal" in="SourceGraphic" in2="BackgroundImageFix" result="shape"/>
<feGaussianBlur stdDeviation="1" result="effect1_foregroundBlur_2855_50756"/>
</filter>
<filter id="filter19_f_2855_50756" x="457.53" y="-50.3398" width="337.975" height="476" filterUnits="userSpaceOnUse" color-interpolation-filters="sRGB">
<feFlood flood-opacity="0" result="BackgroundImageFix"/>
<feBlend mode="normal" in="SourceGraphic" in2="BackgroundImageFix" result="shape"/>
<feGaussianBlur stdDeviation="25" result="effect1_foregroundBlur_2855_50756"/>
</filter>
<filter id="filter20_f_2855_50756" x="487.53" y="-20.3398" width="277.975" height="416" filterUnits="userSpaceOnUse" color-interpolation-filters="sRGB">
<feFlood flood-opacity="0" result="BackgroundImageFix"/>
<feBlend mode="normal" in="SourceGraphic" in2="BackgroundImageFix" result="shape"/>
<feGaussianBlur stdDeviation="10" result="effect1_foregroundBlur_2855_50756"/>
</filter>
<filter id="filter21_f_2855_50756" x="505.53" y="-2.33984" width="241.975" height="380" filterUnits="userSpaceOnUse" color-interpolation-filters="sRGB">
<feFlood flood-opacity="0" result="BackgroundImageFix"/>
<feBlend mode="normal" in="SourceGraphic" in2="BackgroundImageFix" result="shape"/>
<feGaussianBlur stdDeviation="1" result="effect1_foregroundBlur_2855_50756"/>
</filter>
<filter id="filter22_f_2855_50756" x="548.128" y="-50.3398" width="337.975" height="476" filterUnits="userSpaceOnUse" color-interpolation-filters="sRGB">
<feFlood flood-opacity="0" result="BackgroundImageFix"/>
<feBlend mode="normal" in="SourceGraphic" in2="BackgroundImageFix" result="shape"/>
<feGaussianBlur stdDeviation="25" result="effect1_foregroundBlur_2855_50756"/>
</filter>
<filter id="filter23_f_2855_50756" x="578.128" y="-20.3398" width="277.975" height="416" filterUnits="userSpaceOnUse" color-interpolation-filters="sRGB">
<feFlood flood-opacity="0" result="BackgroundImageFix"/>
<feBlend mode="normal" in="SourceGraphic" in2="BackgroundImageFix" result="shape"/>
<feGaussianBlur stdDeviation="10" result="effect1_foregroundBlur_2855_50756"/>
</filter>
<filter id="filter24_f_2855_50756" x="596.128" y="-2.33984" width="241.975" height="380" filterUnits="userSpaceOnUse" color-interpolation-filters="sRGB">
<feFlood flood-opacity="0" result="BackgroundImageFix"/>
<feBlend mode="normal" in="SourceGraphic" in2="BackgroundImageFix" result="shape"/>
<feGaussianBlur stdDeviation="1" result="effect1_foregroundBlur_2855_50756"/>
</filter>
<filter id="filter25_f_2855_50756" x="638.715" y="-50.3398" width="337.975" height="476" filterUnits="userSpaceOnUse" color-interpolation-filters="sRGB">
<feFlood flood-opacity="0" result="BackgroundImageFix"/>
<feBlend mode="normal" in="SourceGraphic" in2="BackgroundImageFix" result="shape"/>
<feGaussianBlur stdDeviation="25" result="effect1_foregroundBlur_2855_50756"/>
</filter>
<filter id="filter26_f_2855_50756" x="668.715" y="-20.3398" width="277.975" height="416" filterUnits="userSpaceOnUse" color-interpolation-filters="sRGB">
<feFlood flood-opacity="0" result="BackgroundImageFix"/>
<feBlend mode="normal" in="SourceGraphic" in2="BackgroundImageFix" result="shape"/>
<feGaussianBlur stdDeviation="10" result="effect1_foregroundBlur_2855_50756"/>
</filter>
<filter id="filter27_f_2855_50756" x="686.715" y="-2.33984" width="241.975" height="380" filterUnits="userSpaceOnUse" color-interpolation-filters="sRGB">
<feFlood flood-opacity="0" result="BackgroundImageFix"/>
<feBlend mode="normal" in="SourceGraphic" in2="BackgroundImageFix" result="shape"/>
<feGaussianBlur stdDeviation="1" result="effect1_foregroundBlur_2855_50756"/>
</filter>
<filter id="filter28_f_2855_50756" x="729.309" y="-50.3398" width="337.975" height="476" filterUnits="userSpaceOnUse" color-interpolation-filters="sRGB">
<feFlood flood-opacity="0" result="BackgroundImageFix"/>
<feBlend mode="normal" in="SourceGraphic" in2="BackgroundImageFix" result="shape"/>
<feGaussianBlur stdDeviation="25" result="effect1_foregroundBlur_2855_50756"/>
</filter>
<filter id="filter29_f_2855_50756" x="759.309" y="-20.3398" width="277.975" height="416" filterUnits="userSpaceOnUse" color-interpolation-filters="sRGB">
<feFlood flood-opacity="0" result="BackgroundImageFix"/>
<feBlend mode="normal" in="SourceGraphic" in2="BackgroundImageFix" result="shape"/>
<feGaussianBlur stdDeviation="10" result="effect1_foregroundBlur_2855_50756"/>
</filter>
<filter id="filter30_f_2855_50756" x="777.309" y="-2.33984" width="241.975" height="380" filterUnits="userSpaceOnUse" color-interpolation-filters="sRGB">
<feFlood flood-opacity="0" result="BackgroundImageFix"/>
<feBlend mode="normal" in="SourceGraphic" in2="BackgroundImageFix" result="shape"/>
<feGaussianBlur stdDeviation="1" result="effect1_foregroundBlur_2855_50756"/>
</filter>
<linearGradient id="paint0_linear_2855_50756" x1="-5.49011" y1="89.7615" x2="-190.34" y2="301.791" gradientUnits="userSpaceOnUse">
<stop stop-color="#867D75"/>
<stop offset="0.46875" stop-color="#FFF1E4"/>
<stop offset="1" stop-color="#C19164"/>
</linearGradient>
<linearGradient id="paint1_linear_2855_50756" x1="-5.49011" y1="89.7615" x2="-190.34" y2="301.791" gradientUnits="userSpaceOnUse">
<stop stop-color="#867D75"/>
<stop offset="0.46875" stop-color="#FFF1E4"/>
<stop offset="1" stop-color="#C19164"/>
</linearGradient>
<linearGradient id="paint2_linear_2855_50756" x1="-23.1862" y1="78.1259" x2="-191.525" y2="303.282" gradientUnits="userSpaceOnUse">
<stop stop-color="#867D75"/>
<stop offset="0.46875" stop-color="#FFF1E4"/>
<stop offset="1" stop-color="#867D75"/>
</linearGradient>
<linearGradient id="paint3_linear_2855_50756" x1="17.4733" y1="4.65344" x2="-199.821" y2="377.985" gradientUnits="userSpaceOnUse">
<stop/>
<stop offset="0.478942" stop-opacity="0"/>
<stop offset="1"/>
</linearGradient>
<linearGradient id="paint4_linear_2855_50756" x1="85.108" y1="89.7615" x2="-99.742" y2="301.791" gradientUnits="userSpaceOnUse">
<stop stop-color="#867D75"/>
<stop offset="0.46875" stop-color="#FFF1E4"/>
<stop offset="1" stop-color="#C19164"/>
</linearGradient>
<linearGradient id="paint5_linear_2855_50756" x1="85.108" y1="89.7615" x2="-99.742" y2="301.791" gradientUnits="userSpaceOnUse">
<stop stop-color="#867D75"/>
<stop offset="0.46875" stop-color="#FFF1E4"/>
<stop offset="1" stop-color="#C19164"/>
</linearGradient>
<linearGradient id="paint6_linear_2855_50756" x1="67.412" y1="78.1259" x2="-100.927" y2="303.282" gradientUnits="userSpaceOnUse">
<stop stop-color="#867D75"/>
<stop offset="0.46875" stop-color="#FFF1E4"/>
<stop offset="1" stop-color="#867D75"/>
</linearGradient>
<linearGradient id="paint7_linear_2855_50756" x1="108.071" y1="4.65344" x2="-109.222" y2="377.985" gradientUnits="userSpaceOnUse">
<stop/>
<stop offset="0.478942" stop-opacity="0"/>
<stop offset="1"/>
</linearGradient>
<linearGradient id="paint8_linear_2855_50756" x1="175.698" y1="89.7615" x2="-9.15215" y2="301.791" gradientUnits="userSpaceOnUse">
<stop stop-color="#867D75"/>
<stop offset="0.46875" stop-color="#FFF1E4"/>
<stop offset="1" stop-color="#C19164"/>
</linearGradient>
<linearGradient id="paint9_linear_2855_50756" x1="175.698" y1="89.7615" x2="-9.15215" y2="301.791" gradientUnits="userSpaceOnUse">
<stop stop-color="#867D75"/>
<stop offset="0.46875" stop-color="#FFF1E4"/>
<stop offset="1" stop-color="#C19164"/>
</linearGradient>
<linearGradient id="paint10_linear_2855_50756" x1="158.002" y1="78.1259" x2="-10.3373" y2="303.282" gradientUnits="userSpaceOnUse">
<stop stop-color="#867D75"/>
<stop offset="0.46875" stop-color="#FFF1E4"/>
<stop offset="1" stop-color="#867D75"/>
</linearGradient>
<linearGradient id="paint11_linear_2855_50756" x1="198.661" y1="4.65344" x2="-18.6325" y2="377.985" gradientUnits="userSpaceOnUse">
<stop/>
<stop offset="0.478942" stop-opacity="0"/>
<stop offset="1"/>
</linearGradient>
<linearGradient id="paint12_linear_2855_50756" x1="266.292" y1="89.7615" x2="81.4421" y2="301.791" gradientUnits="userSpaceOnUse">
<stop stop-color="#867D75"/>
<stop offset="0.46875" stop-color="#FFF1E4"/>
<stop offset="1" stop-color="#C19164"/>
</linearGradient>
<linearGradient id="paint13_linear_2855_50756" x1="266.292" y1="89.7615" x2="81.4421" y2="301.791" gradientUnits="userSpaceOnUse">
<stop stop-color="#867D75"/>
<stop offset="0.46875" stop-color="#FFF1E4"/>
<stop offset="1" stop-color="#C19164"/>
</linearGradient>
<linearGradient id="paint14_linear_2855_50756" x1="248.596" y1="78.1259" x2="80.257" y2="303.282" gradientUnits="userSpaceOnUse">
<stop stop-color="#867D75"/>
<stop offset="0.46875" stop-color="#FFF1E4"/>
<stop offset="1" stop-color="#867D75"/>
</linearGradient>
<linearGradient id="paint15_linear_2855_50756" x1="289.256" y1="4.65344" x2="71.9617" y2="377.985" gradientUnits="userSpaceOnUse">
<stop/>
<stop offset="0.478942" stop-opacity="0"/>
<stop offset="1"/>
</linearGradient>
<linearGradient id="paint16_linear_2855_50756" x1="356.882" y1="89.7615" x2="172.032" y2="301.791" gradientUnits="userSpaceOnUse">
<stop stop-color="#867D75"/>
<stop offset="0.46875" stop-color="#FFF1E4"/>
<stop offset="1" stop-color="#C19164"/>
</linearGradient>
<linearGradient id="paint17_linear_2855_50756" x1="356.882" y1="89.7615" x2="172.032" y2="301.791" gradientUnits="userSpaceOnUse">
<stop stop-color="#867D75"/>
<stop offset="0.46875" stop-color="#FFF1E4"/>
<stop offset="1" stop-color="#C19164"/>
</linearGradient>
<linearGradient id="paint18_linear_2855_50756" x1="339.186" y1="78.1259" x2="170.847" y2="303.282" gradientUnits="userSpaceOnUse">
<stop stop-color="#867D75"/>
<stop offset="0.46875" stop-color="#FFF1E4"/>
<stop offset="1" stop-color="#867D75"/>
</linearGradient>
<linearGradient id="paint19_linear_2855_50756" x1="379.846" y1="4.65344" x2="162.552" y2="377.985" gradientUnits="userSpaceOnUse">
<stop/>
<stop offset="0.478942" stop-opacity="0"/>
<stop offset="1"/>
</linearGradient>
<linearGradient id="paint20_linear_2855_50756" x1="628.661" y1="89.7615" x2="443.811" y2="301.791" gradientUnits="userSpaceOnUse">
<stop stop-color="#867D75"/>
<stop offset="0.46875" stop-color="#FFF1E4"/>
<stop offset="1" stop-color="#C19164"/>
</linearGradient>
<linearGradient id="paint21_linear_2855_50756" x1="628.661" y1="89.7615" x2="443.811" y2="301.791" gradientUnits="userSpaceOnUse">
<stop stop-color="#867D75"/>
<stop offset="0.46875" stop-color="#FFF1E4"/>
<stop offset="1" stop-color="#C19164"/>
</linearGradient>
<linearGradient id="paint22_linear_2855_50756" x1="610.965" y1="78.1259" x2="442.626" y2="303.282" gradientUnits="userSpaceOnUse">
<stop stop-color="#867D75"/>
<stop offset="0.46875" stop-color="#E5D8CD"/>
<stop offset="1" stop-color="#867D75"/>
</linearGradient>
<linearGradient id="paint23_linear_2855_50756" x1="651.624" y1="4.65344" x2="434.33" y2="377.985" gradientUnits="userSpaceOnUse">
<stop/>
<stop offset="0.478942" stop-opacity="0"/>
<stop offset="1"/>
</linearGradient>
<linearGradient id="paint24_linear_2855_50756" x1="719.251" y1="89.7615" x2="534.401" y2="301.791" gradientUnits="userSpaceOnUse">
<stop stop-color="#867D75"/>
<stop offset="0.46875" stop-color="#FFF1E4"/>
<stop offset="1" stop-color="#C19164"/>
</linearGradient>
<linearGradient id="paint25_linear_2855_50756" x1="719.251" y1="89.7615" x2="534.401" y2="301.791" gradientUnits="userSpaceOnUse">
<stop stop-color="#867D75"/>
<stop offset="0.46875" stop-color="#FFF1E4"/>
<stop offset="1" stop-color="#C19164"/>
</linearGradient>
<linearGradient id="paint26_linear_2855_50756" x1="701.555" y1="78.1259" x2="533.215" y2="303.282" gradientUnits="userSpaceOnUse">
<stop stop-color="#867D75"/>
<stop offset="0.46875" stop-color="#FFF1E4"/>
<stop offset="1" stop-color="#867D75"/>
</linearGradient>
<linearGradient id="paint27_linear_2855_50756" x1="742.214" y1="4.65344" x2="524.92" y2="377.985" gradientUnits="userSpaceOnUse">
<stop/>
<stop offset="0.478942" stop-opacity="0"/>
<stop offset="1"/>
</linearGradient>
<linearGradient id="paint28_linear_2855_50756" x1="809.849" y1="89.7615" x2="624.999" y2="301.791" gradientUnits="userSpaceOnUse">
<stop stop-color="#867D75"/>
<stop offset="0.46875" stop-color="#FFF1E4"/>
<stop offset="1" stop-color="#C19164"/>
</linearGradient>
<linearGradient id="paint29_linear_2855_50756" x1="809.849" y1="89.7615" x2="624.999" y2="301.791" gradientUnits="userSpaceOnUse">
<stop stop-color="#867D75"/>
<stop offset="0.46875" stop-color="#FFF1E4"/>
<stop offset="1" stop-color="#C19164"/>
</linearGradient>
<linearGradient id="paint30_linear_2855_50756" x1="792.153" y1="78.1259" x2="623.814" y2="303.282" gradientUnits="userSpaceOnUse">
<stop stop-color="#867D75"/>
<stop offset="0.46875" stop-color="#FFF1E4"/>
<stop offset="1" stop-color="#867D75"/>
</linearGradient>
<linearGradient id="paint31_linear_2855_50756" x1="832.812" y1="4.65344" x2="615.518" y2="377.985" gradientUnits="userSpaceOnUse">
<stop/>
<stop offset="0.478942" stop-opacity="0"/>
<stop offset="1"/>
</linearGradient>
<linearGradient id="paint32_linear_2855_50756" x1="900.435" y1="89.7615" x2="715.585" y2="301.791" gradientUnits="userSpaceOnUse">
<stop stop-color="#867D75"/>
<stop offset="0.46875" stop-color="#FFF1E4"/>
<stop offset="1" stop-color="#C19164"/>
</linearGradient>
<linearGradient id="paint33_linear_2855_50756" x1="900.435" y1="89.7615" x2="715.585" y2="301.791" gradientUnits="userSpaceOnUse">
<stop stop-color="#867D75"/>
<stop offset="0.46875" stop-color="#FFF1E4"/>
<stop offset="1" stop-color="#C19164"/>
</linearGradient>
<linearGradient id="paint34_linear_2855_50756" x1="882.739" y1="78.1259" x2="714.4" y2="303.282" gradientUnits="userSpaceOnUse">
<stop stop-color="#867D75"/>
<stop offset="0.46875" stop-color="#FFF1E4"/>
<stop offset="1" stop-color="#867D75"/>
</linearGradient>
<linearGradient id="paint35_linear_2855_50756" x1="923.399" y1="4.65344" x2="706.105" y2="377.985" gradientUnits="userSpaceOnUse">
<stop/>
<stop offset="0.478942" stop-opacity="0"/>
<stop offset="1"/>
</linearGradient>
<linearGradient id="paint36_linear_2855_50756" x1="991.029" y1="89.7615" x2="806.179" y2="301.791" gradientUnits="userSpaceOnUse">
<stop stop-color="#867D75"/>
<stop offset="0.46875" stop-color="#FFF1E4"/>
<stop offset="1" stop-color="#C19164"/>
</linearGradient>
<linearGradient id="paint37_linear_2855_50756" x1="991.029" y1="89.7615" x2="806.179" y2="301.791" gradientUnits="userSpaceOnUse">
<stop stop-color="#867D75"/>
<stop offset="0.46875" stop-color="#FFF1E4"/>
<stop offset="1" stop-color="#C19164"/>
</linearGradient>
<linearGradient id="paint38_linear_2855_50756" x1="973.333" y1="78.1259" x2="804.994" y2="303.282" gradientUnits="userSpaceOnUse">
<stop stop-color="#867D75"/>
<stop offset="0.46875" stop-color="#FFF1E4"/>
<stop offset="1" stop-color="#867D75"/>
</linearGradient>
<linearGradient id="paint39_linear_2855_50756" x1="1013.99" y1="4.65344" x2="796.699" y2="377.985" gradientUnits="userSpaceOnUse">
<stop/>
<stop offset="0.478942" stop-opacity="0"/>
<stop offset="1"/>
</linearGradient>
<linearGradient id="paint40_linear_2855_50756" x1="425.731" y1="202.462" x2="790" y2="202.462" gradientUnits="userSpaceOnUse">
<stop stop-color="#191919"/>
<stop offset="1" stop-color="#292929" stop-opacity="0"/>
</linearGradient>
<linearGradient id="paint41_linear_2855_50756" x1="444.375" y1="578.462" x2="790" y2="578.462" gradientUnits="userSpaceOnUse">
<stop stop-color="#191919"/>
<stop offset="1" stop-color="#191919" stop-opacity="0"/>
</linearGradient>
<clipPath id="clip0_2855_50756">
<rect width="790" height="376" fill="white"/>
</clipPath>
</defs>
</svg>
