<svg width="20" height="20" viewBox="0 0 20 20" xmlns="http://www.w3.org/2000/svg">

    <path
        d="M4.16634 7.5L2.49967 7.5L2.49967 5.83333L4.16634 5.83333L4.16634 7.5ZM17.4997 7.5L15.833 7.5L15.833 5.83333L17.4997 5.83333L17.4997 7.5ZM4.16634 4.16667L2.49967 4.16667L2.49967 2.5L4.16634 2.5L4.16634 4.16667ZM17.4997 4.16667L15.833 4.16667L15.833 2.5L17.4997 2.5L17.4997 4.16667ZM14.1663 4.16667L12.4997 4.16667L12.4997 2.5L14.1663 2.5L14.1663 4.16667ZM10.833 4.16667L9.16634 4.16667L9.16634 2.5L10.833 2.5L10.833 4.16667ZM7.49967 4.16667L5.83301 4.16667L5.83301 2.5L7.49967 2.5L7.49967 4.16667ZM17.4997 12.5L17.4997 17.5L2.49967 17.5L2.49967 12.5L4.16634 12.5L4.16634 15.8333L15.833 15.8333L15.833 12.5L17.4997 12.5ZM19.1663 10.8333L0.833008 10.8333L0.833007 9.16667L19.1663 9.16667L19.1663 10.8333Z" />
    </g>
</svg>