<svg width="47" height="16" viewBox="0 0 47 16" xmlns="http://www.w3.org/2000/svg">
<path fill-rule="evenodd" clip-rule="evenodd" d="M44.383 2H2.61702C2.27625 2 2 2.27625 2 2.61702V13.383C2 13.7238 2.27625 14 2.61702 14H44.383C44.7238 14 45 13.7238 45 13.383V2.61702C45 2.27625 44.7238 2 44.383 2ZM2.61702 0C1.17168 0 0 1.17168 0 2.61702V13.383C0 14.8283 1.17168 16 2.61702 16H44.383C45.8283 16 47 14.8283 47 13.383V2.61702C47 1.17168 45.8283 0 44.383 0H2.61702Z" />
<path d="M5 5.79487C5 5.35588 5.35588 5 5.79487 5H41.2051C41.6441 5 42 5.35588 42 5.79487V10.2051C42 10.6441 41.6441 11 41.2051 11H5.79487C5.35588 11 5 10.6441 5 10.2051V5.79487Z"/>
<path fill-rule="evenodd" clip-rule="evenodd" d="M6.58974 6.58974V9.41026H40.4103V6.58974H6.58974ZM5.79487 5C5.35588 5 5 5.35588 5 5.79487V10.2051C5 10.6441 5.35588 11 5.79487 11H41.2051C41.6441 11 42 10.6441 42 10.2051V5.79487C42 5.35588 41.6441 5 41.2051 5H5.79487Z" />
</svg>
