<svg width="32" height="32" viewBox="0 0 32 32" xmlns="http://www.w3.org/2000/svg">
<path fill-rule="evenodd" clip-rule="evenodd" d="M9.50008 17.3332C10.3709 17.3332 11.0834 16.6207 11.0834 15.7498C11.0834 14.879 10.3709 14.1665 9.50008 14.1665C8.62925 14.1665 7.91675 14.879 7.91675 15.7498C7.91675 16.6207 8.62925 17.3332 9.50008 17.3332ZM9.50008 18.9165C8.62925 18.9165 7.91675 19.629 7.91675 20.4998C7.91675 21.3707 8.62925 22.0832 9.50008 22.0832C10.3709 22.0832 11.0834 21.3707 11.0834 20.4998C11.0834 19.629 10.3709 18.9165 9.50008 18.9165ZM9.50008 23.6665C8.62925 23.6665 7.91675 24.379 7.91675 25.2498C7.91675 26.1207 8.62925 26.8332 9.50008 26.8332C10.3709 26.8332 11.0834 26.1207 11.0834 25.2498C11.0834 24.379 10.3709 23.6665 9.50008 23.6665Z"/>
</svg>
