<!--
Copyright (c) 2023, NVIDIA CORPORATION.  All rights reserved.

NVIDIA CORPORATION and its licensors retain all intellectual property
and proprietary rights in and to this software, related documentation
and any modifications thereto.  Any use, reproduction, disclosure or
distribution of this software and related documentation without an express
license agreement from NVIDIA CORPORATION is strictly prohibited.
-->
<svg width="169" height="31" viewBox="0 0 169 31" fill="none" xmlns="http://www.w3.org/2000/svg">
<path d="M17.4901 9.24739V6.44821C17.7601 6.42798 18.0369 6.41449 18.3136 6.40775C25.9753 6.16493 31.0043 12.9909 31.0043 12.9909C31.0043 12.9909 25.5702 20.525 19.7515 20.525C18.9144 20.525 18.1651 20.3901 17.4834 20.1608V11.6688C20.467 12.0263 21.0678 13.3483 22.8634 16.3364L26.8528 12.9774C26.8528 12.9774 23.9434 9.1597 19.0292 9.1597C18.5026 9.1597 17.9964 9.19343 17.4901 9.24739ZM17.4901 0V4.1819C17.7669 4.16166 18.0436 4.14143 18.3136 4.13468C28.9792 3.7772 35.9253 12.8695 35.9253 12.8695C35.9253 12.8695 27.9464 22.562 19.6367 22.562C18.8739 22.562 18.1651 22.4946 17.4901 22.3732V24.9565C18.0639 25.0307 18.6579 25.0711 19.2789 25.0711C27.0148 25.0711 32.6041 21.1253 38.0179 16.4578C38.9156 17.1728 42.5878 18.9265 43.3439 19.6886C38.1934 23.9919 26.198 27.4656 19.3937 27.4656C18.7389 27.4656 18.1044 27.4252 17.4901 27.3644V31H46.881V0H17.4901ZM17.4901 20.1608V22.3664C10.3348 21.0916 8.35016 13.6654 8.35016 13.6654C8.35016 13.6654 11.7861 9.86118 17.4901 9.24739V11.6688C17.4834 11.6688 17.4833 11.6688 17.4766 11.6688C14.4862 11.3114 12.1438 14.1038 12.1438 14.1038C12.1438 14.1038 13.4602 18.8118 17.4901 20.1608ZM4.79273 13.3483C4.79273 13.3483 9.03194 7.09573 17.4969 6.45496V4.18864C8.12065 4.93059 0 12.8695 0 12.8695C0 12.8695 4.59697 26.1503 17.4901 27.3644V24.9565C8.02614 23.7626 4.79273 13.3483 4.79273 13.3483Z" fill="#76B900"/>
<path d="M99.8227 5.86185V26.2115H105.574V5.86185H99.8227ZM54.582 5.83487V26.2115H60.3873V10.7385H64.883C66.3749 10.7385 67.4347 11.1095 68.1502 11.8716C69.0615 12.8429 69.4328 14.401 69.4328 17.2609V26.2048H75.0558V14.9474C75.0558 6.91407 69.9323 5.82812 64.9168 5.82812H54.582M109.084 5.86185V26.2115H118.413C123.381 26.2115 125.008 25.3886 126.757 23.5337C127.999 22.232 128.795 19.3788 128.795 16.2626C128.795 13.4028 128.12 10.8531 126.932 9.26133C124.799 6.42168 121.734 5.86185 117.151 5.86185H109.084ZM114.788 10.2933H117.259C120.843 10.2933 123.165 11.9054 123.165 16.0805C123.165 20.2557 120.843 21.8677 117.259 21.8677H114.788V10.2933ZM91.5333 5.86185L86.7338 21.9891L82.1369 5.86185H75.9266L82.4946 26.2115H90.784L97.4061 5.86185H91.5333ZM131.475 26.2115H137.226V5.8686H131.475V26.2115ZM147.602 5.87534L139.569 26.2115H145.239L146.508 22.6164H156.012L157.214 26.2115H163.37L155.277 5.87534H147.602ZM151.335 9.58509L154.818 19.109H147.737L151.335 9.58509Z" fill="white"/>
<path d="M166.315 26.8227C165.323 26.8227 164.52 26.0201 164.52 25.0285C164.52 24.037 165.323 23.2344 166.315 23.2344C167.307 23.2344 168.111 24.037 168.111 25.0285C168.111 26.0201 167.307 26.8227 166.315 26.8227ZM166.315 23.5784C165.512 23.5784 164.891 24.1989 164.891 25.0285C164.891 25.8582 165.512 26.4787 166.315 26.4787C167.118 26.4787 167.739 25.8582 167.739 25.0285C167.739 24.1989 167.125 23.5784 166.315 23.5784ZM166.639 25.9796L166.295 25.2376H166.092V25.9796H165.667V24.0708H166.443C166.828 24.0708 167.078 24.354 167.078 24.6711C167.078 24.9341 166.909 25.1027 166.727 25.1769L167.132 25.9796H166.639ZM166.389 24.4215H166.092V24.9206H166.389C166.551 24.9206 166.653 24.806 166.653 24.6711C166.653 24.5362 166.545 24.4215 166.389 24.4215Z" fill="white"/>
</svg>
