<svg xmlns="http://www.w3.org/2000/svg" viewBox="300 0 768 768">
  <path fill="#76b900" d="M302.933 298.666v-38.4c4.267 0 8.534 0 12.8 0 106.667-4.267 174.933 89.6 174.933 89.6s-72.533 102.4-153.6 102.4c-12.8 0-21.333 0-29.866-4.267v-115.2c42.667 4.267 46.934 21.333 72.533 64l55.467-46.933c0 0-38.4-51.2-106.667-51.2-12.8 0-17.067 0-25.6 0zM302.933 170.667v55.467c4.267 0 8.534 0 12.8 0 145.066-4.267 238.934 123.733 238.934 123.733s-110.933 132.267-221.866 132.267c-8.534 0-21.333 0-29.867-4.267v34.133c8.534 0 17.067 0 25.6 0 106.667 0 183.467-55.467 256-119.467 12.8 8.534 64 34.133 72.533 42.667-68.267 59.733-234.667 106.667-328.533 106.667-8.534 0-17.067 0-25.6 0v55.467h401.067v-426.667h-401.067zM302.933 448v29.867c-98.133-17.067-123.733-119.467-123.733-119.467s46.933-51.2 123.733-59.733v34.133c0 0 0 0 0 0-42.667-4.267-72.533 34.133-72.533 34.133s17.067 64 72.533 81.067zM128 354.134c0 0 59.733-85.334 174.933-93.867v-29.867c-128 8.534-238.933 119.467-238.933 119.467s64 183.467 238.933 196.267v-34.133c-128-12.8-174.933-157.867-174.933-157.867z"></path>
</svg>