<svg width="20" height="20" viewBox="0 0 20 20" xmlns="http://www.w3.org/2000/svg">
<path d="M5.5 4.5H4.5V5.5H5.5V4.5Z"/>
<path d="M7.5 4.5H6.5V5.5H7.5V4.5Z"/>
<path d="M9.5 4.5H8.5V5.5H9.5V4.5Z"/>
<path d="M11.5 4.5H10.5V5.5H11.5V4.5Z"/>
<path d="M13.5 4.5H12.5V5.5H13.5V4.5Z"/>
<path d="M15.5 4.5H14.5V5.5H15.5V4.5Z"/>
<path d="M5.5 6.5H4.5V7.5H5.5V6.5Z"/>
<path d="M7.5 6.5H6.5V7.5H7.5V6.5Z"/>
<path d="M9.5 6.5H8.5V7.5H9.5V6.5Z"/>
<path d="M11.5 6.5H10.5V7.5H11.5V6.5Z"/>
<path d="M13.5 6.5H12.5V7.5H13.5V6.5Z"/>
<path d="M15.5 6.5H14.5V7.5H15.5V6.5Z"/>
<path d="M5.5 8.5H4.5V9.5H5.5V8.5Z"/>
<path d="M7.5 8.5H6.5V9.5H7.5V8.5Z"/>
<path d="M5.5 10.5H4.5V11.5H5.5V10.5Z"/>
<path d="M7.5 10.5H6.5V11.5H7.5V10.5Z"/>
<path d="M5.5 12.5H4.5V13.5H5.5V12.5Z"/>
<path d="M7.5 12.5H6.5V13.5H7.5V12.5Z"/>
<path d="M5.5 14.5H4.5V15.5H5.5V14.5Z"/>
<path d="M7.5 14.5H6.5V15.5H7.5V14.5Z"/>
<path fill-rule="evenodd" clip-rule="evenodd" d="M10.5488 12.0004C10.3488 11.9504 10.1488 11.8504 9.99881 11.7004C9.44881 11.1504 9.34881 10.1504 9.39881 9.40039C9.49881 9.40039 9.59881 9.40039 9.64881 9.40039C10.1988 9.40039 11.1488 9.50039 11.6988 10.0004C11.9488 9.80039 12.2488 9.60039 12.5488 9.45039C12.5488 9.40039 12.4488 9.35039 12.3988 9.30039C11.6488 8.55039 10.4988 8.40039 9.64881 8.40039C8.79881 8.40039 8.49881 8.50039 8.49881 8.50039C8.49881 8.50039 7.99882 11.1004 9.29881 12.4004C9.64881 12.7504 10.0488 12.9504 10.4488 13.0004C10.4488 12.6504 10.4488 12.3004 10.4988 11.9504"/>
<path d="M10.8277 10.0937L10.1206 10.8008L10.7924 11.4725L11.4995 10.7654L10.8277 10.0937Z"/>
<path fill-rule="evenodd" clip-rule="evenodd" d="M15.9502 9.80078C16.3502 9.80078 16.7002 9.80078 16.9502 9.80078C17.0502 10.9508 17.1002 13.2508 15.8002 14.5508C15.3002 15.0508 14.7002 15.3008 14.0002 15.3008C13.3002 15.3008 12.7002 15.0508 12.2002 14.5508C11.2002 13.5508 11.2002 11.9508 12.2002 10.9508C13.1502 10.0008 14.7502 9.75078 15.9502 9.75078M15.9502 8.80078C14.5502 8.80078 12.7002 9.05078 11.5002 10.2508C10.1002 11.6508 10.1002 13.9008 11.5002 15.3008C12.2002 16.0008 13.1002 16.3508 14.0002 16.3508C14.9002 16.3508 15.8002 16.0008 16.5002 15.3008C18.6502 13.1508 17.8002 8.95078 17.8002 8.95078C17.8002 8.95078 17.0002 8.80078 15.9002 8.80078"/>
<path fill-rule="evenodd" clip-rule="evenodd" d="M9.4999 18.0008L8.8999 17.1508L14.7999 11.3008L15.4999 12.0008L9.4999 18.0008Z"/>
<path fill-rule="evenodd" clip-rule="evenodd" d="M3 17V3H17V7.5H18V2H2V18H7.5V17H3Z"/>
</svg>
