<svg width="20" height="20" viewBox="0 0 20 20" xmlns="http://www.w3.org/2000/svg">
    <path
        d="M12.5 4.16732V2.50065H14.1667V4.16732H12.5ZM12.5 17.5007V15.834H14.1667V17.5007H12.5ZM15.8333 4.16732V2.50065H17.5V4.16732H15.8333ZM15.8333 17.5007V15.834H17.5V17.5007H15.8333ZM15.8333 14.1673V12.5007H17.5V14.1673H15.8333ZM15.8333 10.834V9.16732H17.5V10.834H15.8333ZM15.8333 7.50065V5.83398H17.5V7.50065H15.8333ZM7.5 17.5007H2.5V2.50065H7.5V4.16732H4.16667V15.834H7.5V17.5007ZM9.16667 19.1673V0.833984H10.8333V19.1673H9.16667Z" />
</svg>