<svg width="742" height="280" viewBox="0 0 742 280" fill="none" xmlns="http://www.w3.org/2000/svg">
<g clip-path="url(#clip0_3166_144216)">
<rect width="742" height="280" fill="#292929"/>
<g opacity="0.3" filter="url(#filter0_d_3166_144216)">
<mask id="mask0_3166_144216" style="mask-type:alpha" maskUnits="userSpaceOnUse" x="0" y="0" width="742" height="280">
<rect width="742" height="280" fill="#292929"/>
</mask>
<g mask="url(#mask0_3166_144216)">
<g filter="url(#filter1_f_3166_144216)">
<path d="M25.7758 -10.2686H29.3843L-178.607 324.058H-182.215L25.7758 -10.2686Z" fill="url(#paint0_linear_3166_144216)"/>
</g>
<g filter="url(#filter2_f_3166_144216)">
<path d="M25.7758 -10.2686H29.3843L-178.607 324.058H-182.215L25.7758 -10.2686Z" fill="url(#paint1_linear_3166_144216)"/>
</g>
<g filter="url(#filter3_f_3166_144216)">
<path d="M25.7758 -10.2686H29.3843L-178.607 324.058H-182.215L25.7758 -10.2686Z" fill="url(#paint2_linear_3166_144216)"/>
<path d="M25.7758 -10.2686H29.3843L-178.607 324.058H-182.215L25.7758 -10.2686Z" fill="url(#paint3_linear_3166_144216)" fill-opacity="0.2"/>
</g>
<g filter="url(#filter4_f_3166_144216)">
<path d="M106.328 -10.2686H109.936L-98.0548 324.058H-101.663L106.328 -10.2686Z" fill="url(#paint4_linear_3166_144216)"/>
</g>
<g filter="url(#filter5_f_3166_144216)">
<path d="M106.328 -10.2686H109.936L-98.0548 324.058H-101.663L106.328 -10.2686Z" fill="url(#paint5_linear_3166_144216)"/>
</g>
<g filter="url(#filter6_f_3166_144216)">
<path d="M106.328 -10.2686H109.936L-98.0548 324.058H-101.663L106.328 -10.2686Z" fill="url(#paint6_linear_3166_144216)"/>
<path d="M106.328 -10.2686H109.936L-98.0548 324.058H-101.663L106.328 -10.2686Z" fill="url(#paint7_linear_3166_144216)" fill-opacity="0.2"/>
</g>
<g filter="url(#filter7_f_3166_144216)">
<path d="M186.879 -10.2686H190.488L-17.5033 324.058H-21.1118L186.879 -10.2686Z" fill="url(#paint8_linear_3166_144216)"/>
</g>
<g filter="url(#filter8_f_3166_144216)">
<path d="M186.879 -10.2686H190.488L-17.5033 324.058H-21.1118L186.879 -10.2686Z" fill="url(#paint9_linear_3166_144216)"/>
</g>
<g filter="url(#filter9_f_3166_144216)">
<path d="M186.879 -10.2686H190.488L-17.5033 324.058H-21.1118L186.879 -10.2686Z" fill="url(#paint10_linear_3166_144216)"/>
<path d="M186.879 -10.2686H190.488L-17.5033 324.058H-21.1118L186.879 -10.2686Z" fill="url(#paint11_linear_3166_144216)" fill-opacity="0.2"/>
</g>
<g filter="url(#filter10_f_3166_144216)">
<path d="M267.431 -10.2686H271.039L63.0482 324.058H59.4397L267.431 -10.2686Z" fill="url(#paint12_linear_3166_144216)"/>
</g>
<g filter="url(#filter11_f_3166_144216)">
<path d="M267.431 -10.2686H271.039L63.0482 324.058H59.4397L267.431 -10.2686Z" fill="url(#paint13_linear_3166_144216)"/>
</g>
<g filter="url(#filter12_f_3166_144216)">
<path d="M267.431 -10.2686H271.039L63.0482 324.058H59.4397L267.431 -10.2686Z" fill="url(#paint14_linear_3166_144216)"/>
<path d="M267.431 -10.2686H271.039L63.0482 324.058H59.4397L267.431 -10.2686Z" fill="url(#paint15_linear_3166_144216)" fill-opacity="0.2"/>
</g>
<g filter="url(#filter13_f_3166_144216)">
<path d="M347.982 -10.2686H351.591L143.6 324.058H139.991L347.982 -10.2686Z" fill="url(#paint16_linear_3166_144216)"/>
</g>
<g filter="url(#filter14_f_3166_144216)">
<path d="M347.982 -10.2686H351.591L143.6 324.058H139.991L347.982 -10.2686Z" fill="url(#paint17_linear_3166_144216)"/>
</g>
<g filter="url(#filter15_f_3166_144216)">
<path d="M347.982 -10.2686H351.591L143.6 324.058H139.991L347.982 -10.2686Z" fill="url(#paint18_linear_3166_144216)"/>
<path d="M347.982 -10.2686H351.591L143.6 324.058H139.991L347.982 -10.2686Z" fill="url(#paint19_linear_3166_144216)" fill-opacity="0.2"/>
</g>
<g filter="url(#filter16_f_3166_144216)">
<path d="M589.636 -10.2686H593.245L385.254 324.058H381.645L589.636 -10.2686Z" fill="url(#paint20_linear_3166_144216)"/>
</g>
<g filter="url(#filter17_f_3166_144216)">
<path d="M589.636 -10.2686H593.245L385.254 324.058H381.645L589.636 -10.2686Z" fill="url(#paint21_linear_3166_144216)"/>
</g>
<g filter="url(#filter18_f_3166_144216)">
<path d="M589.636 -10.2686H593.245L385.254 324.058H381.645L589.636 -10.2686Z" fill="url(#paint22_linear_3166_144216)"/>
<path d="M589.636 -10.2686H593.245L385.254 324.058H381.645L589.636 -10.2686Z" fill="url(#paint23_linear_3166_144216)" fill-opacity="0.2"/>
</g>
<g filter="url(#filter19_f_3166_144216)">
<path d="M670.188 -10.2686H673.796L465.805 324.058H462.197L670.188 -10.2686Z" fill="url(#paint24_linear_3166_144216)"/>
</g>
<g filter="url(#filter20_f_3166_144216)">
<path d="M670.188 -10.2686H673.796L465.805 324.058H462.197L670.188 -10.2686Z" fill="url(#paint25_linear_3166_144216)"/>
</g>
<g filter="url(#filter21_f_3166_144216)">
<path d="M670.188 -10.2686H673.796L465.805 324.058H462.197L670.188 -10.2686Z" fill="url(#paint26_linear_3166_144216)"/>
<path d="M670.188 -10.2686H673.796L465.805 324.058H462.197L670.188 -10.2686Z" fill="url(#paint27_linear_3166_144216)" fill-opacity="0.2"/>
</g>
<g filter="url(#filter22_f_3166_144216)">
<path d="M750.74 -10.2686H754.348L546.357 324.058H542.749L750.74 -10.2686Z" fill="url(#paint28_linear_3166_144216)"/>
</g>
<g filter="url(#filter23_f_3166_144216)">
<path d="M750.74 -10.2686H754.348L546.357 324.058H542.749L750.74 -10.2686Z" fill="url(#paint29_linear_3166_144216)"/>
</g>
<g filter="url(#filter24_f_3166_144216)">
<path d="M750.74 -10.2686H754.348L546.357 324.058H542.749L750.74 -10.2686Z" fill="url(#paint30_linear_3166_144216)"/>
<path d="M750.74 -10.2686H754.348L546.357 324.058H542.749L750.74 -10.2686Z" fill="url(#paint31_linear_3166_144216)" fill-opacity="0.2"/>
</g>
<g filter="url(#filter25_f_3166_144216)">
<path d="M831.29 -10.2686H834.899L626.908 324.058H623.299L831.29 -10.2686Z" fill="url(#paint32_linear_3166_144216)"/>
</g>
<g filter="url(#filter26_f_3166_144216)">
<path d="M831.29 -10.2686H834.899L626.908 324.058H623.299L831.29 -10.2686Z" fill="url(#paint33_linear_3166_144216)"/>
</g>
<g filter="url(#filter27_f_3166_144216)">
<path d="M831.29 -10.2686H834.899L626.908 324.058H623.299L831.29 -10.2686Z" fill="url(#paint34_linear_3166_144216)"/>
<path d="M831.29 -10.2686H834.899L626.908 324.058H623.299L831.29 -10.2686Z" fill="url(#paint35_linear_3166_144216)" fill-opacity="0.2"/>
</g>
<g filter="url(#filter28_f_3166_144216)">
<path d="M911.842 -10.2686H915.451L707.46 324.058H703.851L911.842 -10.2686Z" fill="url(#paint36_linear_3166_144216)"/>
</g>
<g filter="url(#filter29_f_3166_144216)">
<path d="M911.842 -10.2686H915.451L707.46 324.058H703.851L911.842 -10.2686Z" fill="url(#paint37_linear_3166_144216)"/>
</g>
<g filter="url(#filter30_f_3166_144216)">
<path d="M911.842 -10.2686H915.451L707.46 324.058H703.851L911.842 -10.2686Z" fill="url(#paint38_linear_3166_144216)"/>
<path d="M911.842 -10.2686H915.451L707.46 324.058H703.851L911.842 -10.2686Z" fill="url(#paint39_linear_3166_144216)" fill-opacity="0.2"/>
</g>
<g filter="url(#filter31_f_3166_144216)">
<path d="M992.394 -10.2686H996.002L788.011 324.058H784.403L992.394 -10.2686Z" fill="url(#paint40_linear_3166_144216)"/>
</g>
<rect x="371" width="371" height="280" fill="url(#paint41_linear_3166_144216)"/>
<rect x="371" y="280" width="371" height="280" transform="rotate(-180 371 280)" fill="url(#paint42_linear_3166_144216)"/>
</g>
</g>
<path d="M313.03 134.826V132.392C313.265 132.374 313.505 132.362 313.746 132.356C320.413 132.145 324.789 138.081 324.789 138.081C324.789 138.081 320.061 144.633 314.997 144.633C314.269 144.633 313.617 144.516 313.024 144.316V136.932C315.62 137.242 316.143 138.392 317.705 140.991L321.177 138.069C321.177 138.069 318.645 134.75 314.369 134.75C313.911 134.75 313.47 134.779 313.03 134.826ZM313.03 126.784V130.421C313.27 130.403 313.511 130.386 313.746 130.38C323.027 130.069 329.072 137.976 329.072 137.976C329.072 137.976 322.128 146.404 314.898 146.404C314.234 146.404 313.617 146.346 313.03 146.24V148.487C313.529 148.551 314.046 148.586 314.586 148.586C321.318 148.586 326.182 145.155 330.893 141.096C331.674 141.718 334.869 143.243 335.527 143.906C331.045 147.648 320.607 150.669 314.686 150.669C314.116 150.669 313.564 150.633 313.03 150.581V153.742H338.605V126.784H313.03ZM313.03 144.316V146.234C306.803 145.126 305.076 138.668 305.076 138.668C305.076 138.668 308.066 135.36 313.03 134.826V136.932C313.024 136.932 313.024 136.932 313.018 136.932C310.416 136.621 308.377 139.049 308.377 139.049C308.377 139.049 309.523 143.143 313.03 144.316ZM301.981 138.392C301.981 138.392 305.669 132.955 313.036 132.398V130.427C304.876 131.072 297.81 137.976 297.81 137.976C297.81 137.976 301.81 149.525 313.03 150.581V148.487C304.794 147.448 301.981 138.392 301.981 138.392Z" fill="#76B900"/>
<path d="M384.675 131.876V149.572H389.68V131.876H384.675ZM345.307 131.852V149.572H350.359V136.116H354.271C355.569 136.116 356.491 136.439 357.114 137.102C357.907 137.946 358.23 139.301 358.23 141.788V149.566H363.123V139.776C363.123 132.791 358.665 131.846 354.3 131.846H345.307M392.734 131.876V149.572H400.852C405.175 149.572 406.591 148.856 408.112 147.243C409.193 146.111 409.886 143.63 409.886 140.92C409.886 138.433 409.299 136.216 408.265 134.832C406.409 132.362 403.742 131.876 399.754 131.876H392.734V131.876ZM397.698 135.729H399.848C402.967 135.729 404.987 137.131 404.987 140.762C404.987 144.393 402.967 145.794 399.848 145.794H397.698V135.729V135.729ZM377.462 131.876L373.285 145.9L369.285 131.876H363.881L369.596 149.572H376.81L382.572 131.876H377.462V131.876ZM412.218 149.572H417.223V131.881H412.218V149.572ZM426.251 131.887L419.261 149.572H424.195L425.3 146.445H433.57L434.616 149.572H439.973L432.93 131.887H426.251ZM429.5 135.113L432.531 143.395H426.369L429.5 135.113Z" fill="white"/>
<path d="M442.54 150.111C441.676 150.111 440.977 149.413 440.977 148.551C440.977 147.689 441.676 146.991 442.54 146.991C443.403 146.991 444.102 147.689 444.102 148.551C444.102 149.413 443.403 150.111 442.54 150.111ZM442.54 147.29C441.841 147.29 441.3 147.83 441.3 148.551C441.3 149.273 441.841 149.812 442.54 149.812C443.239 149.812 443.779 149.273 443.779 148.551C443.779 147.83 443.245 147.29 442.54 147.29ZM442.822 149.378L442.522 148.733H442.346V149.378H441.976V147.718H442.652C442.986 147.718 443.204 147.965 443.204 148.24C443.204 148.469 443.057 148.616 442.898 148.68L443.251 149.378H442.822ZM442.605 148.023H442.346V148.457H442.605C442.745 148.457 442.834 148.358 442.834 148.24C442.834 148.123 442.74 148.023 442.605 148.023Z" fill="white"/>
</g>
<defs>
<filter id="filter0_d_3166_144216" x="-4" y="0" width="750" height="288" filterUnits="userSpaceOnUse" color-interpolation-filters="sRGB">
<feFlood flood-opacity="0" result="BackgroundImageFix"/>
<feColorMatrix in="SourceAlpha" type="matrix" values="0 0 0 0 0 0 0 0 0 0 0 0 0 0 0 0 0 0 127 0" result="hardAlpha"/>
<feOffset dy="4"/>
<feGaussianBlur stdDeviation="2"/>
<feComposite in2="hardAlpha" operator="out"/>
<feColorMatrix type="matrix" values="0 0 0 0 0 0 0 0 0 0 0 0 0 0 0 0 0 0 0.25 0"/>
<feBlend mode="normal" in2="BackgroundImageFix" result="effect1_dropShadow_3166_144216"/>
<feBlend mode="normal" in="SourceGraphic" in2="effect1_dropShadow_3166_144216" result="shape"/>
</filter>
<filter id="filter1_f_3166_144216" x="-232.215" y="-60.2686" width="311.599" height="434.326" filterUnits="userSpaceOnUse" color-interpolation-filters="sRGB">
<feFlood flood-opacity="0" result="BackgroundImageFix"/>
<feBlend mode="normal" in="SourceGraphic" in2="BackgroundImageFix" result="shape"/>
<feGaussianBlur stdDeviation="25" result="effect1_foregroundBlur_3166_144216"/>
</filter>
<filter id="filter2_f_3166_144216" x="-202.215" y="-30.2686" width="251.599" height="374.326" filterUnits="userSpaceOnUse" color-interpolation-filters="sRGB">
<feFlood flood-opacity="0" result="BackgroundImageFix"/>
<feBlend mode="normal" in="SourceGraphic" in2="BackgroundImageFix" result="shape"/>
<feGaussianBlur stdDeviation="10" result="effect1_foregroundBlur_3166_144216"/>
</filter>
<filter id="filter3_f_3166_144216" x="-184.215" y="-12.2686" width="215.599" height="338.326" filterUnits="userSpaceOnUse" color-interpolation-filters="sRGB">
<feFlood flood-opacity="0" result="BackgroundImageFix"/>
<feBlend mode="normal" in="SourceGraphic" in2="BackgroundImageFix" result="shape"/>
<feGaussianBlur stdDeviation="1" result="effect1_foregroundBlur_3166_144216"/>
</filter>
<filter id="filter4_f_3166_144216" x="-151.663" y="-60.2686" width="311.599" height="434.326" filterUnits="userSpaceOnUse" color-interpolation-filters="sRGB">
<feFlood flood-opacity="0" result="BackgroundImageFix"/>
<feBlend mode="normal" in="SourceGraphic" in2="BackgroundImageFix" result="shape"/>
<feGaussianBlur stdDeviation="25" result="effect1_foregroundBlur_3166_144216"/>
</filter>
<filter id="filter5_f_3166_144216" x="-121.663" y="-30.2686" width="251.599" height="374.326" filterUnits="userSpaceOnUse" color-interpolation-filters="sRGB">
<feFlood flood-opacity="0" result="BackgroundImageFix"/>
<feBlend mode="normal" in="SourceGraphic" in2="BackgroundImageFix" result="shape"/>
<feGaussianBlur stdDeviation="10" result="effect1_foregroundBlur_3166_144216"/>
</filter>
<filter id="filter6_f_3166_144216" x="-103.663" y="-12.2686" width="215.599" height="338.326" filterUnits="userSpaceOnUse" color-interpolation-filters="sRGB">
<feFlood flood-opacity="0" result="BackgroundImageFix"/>
<feBlend mode="normal" in="SourceGraphic" in2="BackgroundImageFix" result="shape"/>
<feGaussianBlur stdDeviation="1" result="effect1_foregroundBlur_3166_144216"/>
</filter>
<filter id="filter7_f_3166_144216" x="-71.1118" y="-60.2686" width="311.599" height="434.326" filterUnits="userSpaceOnUse" color-interpolation-filters="sRGB">
<feFlood flood-opacity="0" result="BackgroundImageFix"/>
<feBlend mode="normal" in="SourceGraphic" in2="BackgroundImageFix" result="shape"/>
<feGaussianBlur stdDeviation="25" result="effect1_foregroundBlur_3166_144216"/>
</filter>
<filter id="filter8_f_3166_144216" x="-41.1118" y="-30.2686" width="251.599" height="374.326" filterUnits="userSpaceOnUse" color-interpolation-filters="sRGB">
<feFlood flood-opacity="0" result="BackgroundImageFix"/>
<feBlend mode="normal" in="SourceGraphic" in2="BackgroundImageFix" result="shape"/>
<feGaussianBlur stdDeviation="10" result="effect1_foregroundBlur_3166_144216"/>
</filter>
<filter id="filter9_f_3166_144216" x="-23.1118" y="-12.2686" width="215.599" height="338.326" filterUnits="userSpaceOnUse" color-interpolation-filters="sRGB">
<feFlood flood-opacity="0" result="BackgroundImageFix"/>
<feBlend mode="normal" in="SourceGraphic" in2="BackgroundImageFix" result="shape"/>
<feGaussianBlur stdDeviation="1" result="effect1_foregroundBlur_3166_144216"/>
</filter>
<filter id="filter10_f_3166_144216" x="9.4397" y="-60.2686" width="311.599" height="434.326" filterUnits="userSpaceOnUse" color-interpolation-filters="sRGB">
<feFlood flood-opacity="0" result="BackgroundImageFix"/>
<feBlend mode="normal" in="SourceGraphic" in2="BackgroundImageFix" result="shape"/>
<feGaussianBlur stdDeviation="25" result="effect1_foregroundBlur_3166_144216"/>
</filter>
<filter id="filter11_f_3166_144216" x="39.4397" y="-30.2686" width="251.599" height="374.326" filterUnits="userSpaceOnUse" color-interpolation-filters="sRGB">
<feFlood flood-opacity="0" result="BackgroundImageFix"/>
<feBlend mode="normal" in="SourceGraphic" in2="BackgroundImageFix" result="shape"/>
<feGaussianBlur stdDeviation="10" result="effect1_foregroundBlur_3166_144216"/>
</filter>
<filter id="filter12_f_3166_144216" x="57.4397" y="-12.2686" width="215.599" height="338.326" filterUnits="userSpaceOnUse" color-interpolation-filters="sRGB">
<feFlood flood-opacity="0" result="BackgroundImageFix"/>
<feBlend mode="normal" in="SourceGraphic" in2="BackgroundImageFix" result="shape"/>
<feGaussianBlur stdDeviation="1" result="effect1_foregroundBlur_3166_144216"/>
</filter>
<filter id="filter13_f_3166_144216" x="89.9915" y="-60.2686" width="311.599" height="434.326" filterUnits="userSpaceOnUse" color-interpolation-filters="sRGB">
<feFlood flood-opacity="0" result="BackgroundImageFix"/>
<feBlend mode="normal" in="SourceGraphic" in2="BackgroundImageFix" result="shape"/>
<feGaussianBlur stdDeviation="25" result="effect1_foregroundBlur_3166_144216"/>
</filter>
<filter id="filter14_f_3166_144216" x="119.991" y="-30.2686" width="251.599" height="374.326" filterUnits="userSpaceOnUse" color-interpolation-filters="sRGB">
<feFlood flood-opacity="0" result="BackgroundImageFix"/>
<feBlend mode="normal" in="SourceGraphic" in2="BackgroundImageFix" result="shape"/>
<feGaussianBlur stdDeviation="10" result="effect1_foregroundBlur_3166_144216"/>
</filter>
<filter id="filter15_f_3166_144216" x="137.991" y="-12.2686" width="215.599" height="338.326" filterUnits="userSpaceOnUse" color-interpolation-filters="sRGB">
<feFlood flood-opacity="0" result="BackgroundImageFix"/>
<feBlend mode="normal" in="SourceGraphic" in2="BackgroundImageFix" result="shape"/>
<feGaussianBlur stdDeviation="1" result="effect1_foregroundBlur_3166_144216"/>
</filter>
<filter id="filter16_f_3166_144216" x="331.645" y="-60.2686" width="311.599" height="434.326" filterUnits="userSpaceOnUse" color-interpolation-filters="sRGB">
<feFlood flood-opacity="0" result="BackgroundImageFix"/>
<feBlend mode="normal" in="SourceGraphic" in2="BackgroundImageFix" result="shape"/>
<feGaussianBlur stdDeviation="25" result="effect1_foregroundBlur_3166_144216"/>
</filter>
<filter id="filter17_f_3166_144216" x="361.645" y="-30.2686" width="251.599" height="374.326" filterUnits="userSpaceOnUse" color-interpolation-filters="sRGB">
<feFlood flood-opacity="0" result="BackgroundImageFix"/>
<feBlend mode="normal" in="SourceGraphic" in2="BackgroundImageFix" result="shape"/>
<feGaussianBlur stdDeviation="10" result="effect1_foregroundBlur_3166_144216"/>
</filter>
<filter id="filter18_f_3166_144216" x="379.645" y="-12.2686" width="215.599" height="338.326" filterUnits="userSpaceOnUse" color-interpolation-filters="sRGB">
<feFlood flood-opacity="0" result="BackgroundImageFix"/>
<feBlend mode="normal" in="SourceGraphic" in2="BackgroundImageFix" result="shape"/>
<feGaussianBlur stdDeviation="1" result="effect1_foregroundBlur_3166_144216"/>
</filter>
<filter id="filter19_f_3166_144216" x="412.197" y="-60.2686" width="311.599" height="434.326" filterUnits="userSpaceOnUse" color-interpolation-filters="sRGB">
<feFlood flood-opacity="0" result="BackgroundImageFix"/>
<feBlend mode="normal" in="SourceGraphic" in2="BackgroundImageFix" result="shape"/>
<feGaussianBlur stdDeviation="25" result="effect1_foregroundBlur_3166_144216"/>
</filter>
<filter id="filter20_f_3166_144216" x="442.197" y="-30.2686" width="251.599" height="374.326" filterUnits="userSpaceOnUse" color-interpolation-filters="sRGB">
<feFlood flood-opacity="0" result="BackgroundImageFix"/>
<feBlend mode="normal" in="SourceGraphic" in2="BackgroundImageFix" result="shape"/>
<feGaussianBlur stdDeviation="10" result="effect1_foregroundBlur_3166_144216"/>
</filter>
<filter id="filter21_f_3166_144216" x="460.197" y="-12.2686" width="215.599" height="338.326" filterUnits="userSpaceOnUse" color-interpolation-filters="sRGB">
<feFlood flood-opacity="0" result="BackgroundImageFix"/>
<feBlend mode="normal" in="SourceGraphic" in2="BackgroundImageFix" result="shape"/>
<feGaussianBlur stdDeviation="1" result="effect1_foregroundBlur_3166_144216"/>
</filter>
<filter id="filter22_f_3166_144216" x="492.749" y="-60.2686" width="311.599" height="434.326" filterUnits="userSpaceOnUse" color-interpolation-filters="sRGB">
<feFlood flood-opacity="0" result="BackgroundImageFix"/>
<feBlend mode="normal" in="SourceGraphic" in2="BackgroundImageFix" result="shape"/>
<feGaussianBlur stdDeviation="25" result="effect1_foregroundBlur_3166_144216"/>
</filter>
<filter id="filter23_f_3166_144216" x="522.749" y="-30.2686" width="251.599" height="374.326" filterUnits="userSpaceOnUse" color-interpolation-filters="sRGB">
<feFlood flood-opacity="0" result="BackgroundImageFix"/>
<feBlend mode="normal" in="SourceGraphic" in2="BackgroundImageFix" result="shape"/>
<feGaussianBlur stdDeviation="10" result="effect1_foregroundBlur_3166_144216"/>
</filter>
<filter id="filter24_f_3166_144216" x="540.749" y="-12.2686" width="215.599" height="338.326" filterUnits="userSpaceOnUse" color-interpolation-filters="sRGB">
<feFlood flood-opacity="0" result="BackgroundImageFix"/>
<feBlend mode="normal" in="SourceGraphic" in2="BackgroundImageFix" result="shape"/>
<feGaussianBlur stdDeviation="1" result="effect1_foregroundBlur_3166_144216"/>
</filter>
<filter id="filter25_f_3166_144216" x="573.299" y="-60.2686" width="311.599" height="434.326" filterUnits="userSpaceOnUse" color-interpolation-filters="sRGB">
<feFlood flood-opacity="0" result="BackgroundImageFix"/>
<feBlend mode="normal" in="SourceGraphic" in2="BackgroundImageFix" result="shape"/>
<feGaussianBlur stdDeviation="25" result="effect1_foregroundBlur_3166_144216"/>
</filter>
<filter id="filter26_f_3166_144216" x="603.299" y="-30.2686" width="251.599" height="374.326" filterUnits="userSpaceOnUse" color-interpolation-filters="sRGB">
<feFlood flood-opacity="0" result="BackgroundImageFix"/>
<feBlend mode="normal" in="SourceGraphic" in2="BackgroundImageFix" result="shape"/>
<feGaussianBlur stdDeviation="10" result="effect1_foregroundBlur_3166_144216"/>
</filter>
<filter id="filter27_f_3166_144216" x="621.299" y="-12.2686" width="215.599" height="338.326" filterUnits="userSpaceOnUse" color-interpolation-filters="sRGB">
<feFlood flood-opacity="0" result="BackgroundImageFix"/>
<feBlend mode="normal" in="SourceGraphic" in2="BackgroundImageFix" result="shape"/>
<feGaussianBlur stdDeviation="1" result="effect1_foregroundBlur_3166_144216"/>
</filter>
<filter id="filter28_f_3166_144216" x="653.851" y="-60.2686" width="311.599" height="434.326" filterUnits="userSpaceOnUse" color-interpolation-filters="sRGB">
<feFlood flood-opacity="0" result="BackgroundImageFix"/>
<feBlend mode="normal" in="SourceGraphic" in2="BackgroundImageFix" result="shape"/>
<feGaussianBlur stdDeviation="25" result="effect1_foregroundBlur_3166_144216"/>
</filter>
<filter id="filter29_f_3166_144216" x="683.851" y="-30.2686" width="251.599" height="374.326" filterUnits="userSpaceOnUse" color-interpolation-filters="sRGB">
<feFlood flood-opacity="0" result="BackgroundImageFix"/>
<feBlend mode="normal" in="SourceGraphic" in2="BackgroundImageFix" result="shape"/>
<feGaussianBlur stdDeviation="10" result="effect1_foregroundBlur_3166_144216"/>
</filter>
<filter id="filter30_f_3166_144216" x="701.851" y="-12.2686" width="215.599" height="338.326" filterUnits="userSpaceOnUse" color-interpolation-filters="sRGB">
<feFlood flood-opacity="0" result="BackgroundImageFix"/>
<feBlend mode="normal" in="SourceGraphic" in2="BackgroundImageFix" result="shape"/>
<feGaussianBlur stdDeviation="1" result="effect1_foregroundBlur_3166_144216"/>
</filter>
<filter id="filter31_f_3166_144216" x="734.403" y="-60.2686" width="311.599" height="434.326" filterUnits="userSpaceOnUse" color-interpolation-filters="sRGB">
<feFlood flood-opacity="0" result="BackgroundImageFix"/>
<feBlend mode="normal" in="SourceGraphic" in2="BackgroundImageFix" result="shape"/>
<feGaussianBlur stdDeviation="25" result="effect1_foregroundBlur_3166_144216"/>
</filter>
<linearGradient id="paint0_linear_3166_144216" x1="6.03932" y1="69.8465" x2="-158.323" y2="258.376" gradientUnits="userSpaceOnUse">
<stop stop-color="#867D75"/>
<stop offset="0.46875" stop-color="#FFF1E4"/>
<stop offset="1" stop-color="#C19164"/>
</linearGradient>
<linearGradient id="paint1_linear_3166_144216" x1="6.03932" y1="69.8465" x2="-158.323" y2="258.376" gradientUnits="userSpaceOnUse">
<stop stop-color="#867D75"/>
<stop offset="0.46875" stop-color="#FFF1E4"/>
<stop offset="1" stop-color="#C19164"/>
</linearGradient>
<linearGradient id="paint2_linear_3166_144216" x1="-9.69542" y1="59.5004" x2="-159.377" y2="259.701" gradientUnits="userSpaceOnUse">
<stop stop-color="#867D75"/>
<stop offset="0.46875" stop-color="#FFF1E4"/>
<stop offset="1" stop-color="#867D75"/>
</linearGradient>
<linearGradient id="paint3_linear_3166_144216" x1="26.4576" y1="-5.8287" x2="-166.753" y2="326.125" gradientUnits="userSpaceOnUse">
<stop/>
<stop offset="0.478942" stop-opacity="0"/>
<stop offset="1"/>
</linearGradient>
<linearGradient id="paint4_linear_3166_144216" x1="86.5911" y1="69.8465" x2="-77.7712" y2="258.376" gradientUnits="userSpaceOnUse">
<stop stop-color="#867D75"/>
<stop offset="0.46875" stop-color="#FFF1E4"/>
<stop offset="1" stop-color="#C19164"/>
</linearGradient>
<linearGradient id="paint5_linear_3166_144216" x1="86.5911" y1="69.8465" x2="-77.7712" y2="258.376" gradientUnits="userSpaceOnUse">
<stop stop-color="#867D75"/>
<stop offset="0.46875" stop-color="#FFF1E4"/>
<stop offset="1" stop-color="#C19164"/>
</linearGradient>
<linearGradient id="paint6_linear_3166_144216" x1="70.8563" y1="59.5004" x2="-78.825" y2="259.701" gradientUnits="userSpaceOnUse">
<stop stop-color="#867D75"/>
<stop offset="0.46875" stop-color="#FFF1E4"/>
<stop offset="1" stop-color="#867D75"/>
</linearGradient>
<linearGradient id="paint7_linear_3166_144216" x1="107.009" y1="-5.8287" x2="-86.2008" y2="326.125" gradientUnits="userSpaceOnUse">
<stop/>
<stop offset="0.478942" stop-opacity="0"/>
<stop offset="1"/>
</linearGradient>
<linearGradient id="paint8_linear_3166_144216" x1="167.143" y1="69.8465" x2="2.78032" y2="258.376" gradientUnits="userSpaceOnUse">
<stop stop-color="#867D75"/>
<stop offset="0.46875" stop-color="#FFF1E4"/>
<stop offset="1" stop-color="#C19164"/>
</linearGradient>
<linearGradient id="paint9_linear_3166_144216" x1="167.143" y1="69.8465" x2="2.78032" y2="258.376" gradientUnits="userSpaceOnUse">
<stop stop-color="#867D75"/>
<stop offset="0.46875" stop-color="#FFF1E4"/>
<stop offset="1" stop-color="#C19164"/>
</linearGradient>
<linearGradient id="paint10_linear_3166_144216" x1="151.408" y1="59.5004" x2="1.72655" y2="259.701" gradientUnits="userSpaceOnUse">
<stop stop-color="#867D75"/>
<stop offset="0.46875" stop-color="#FFF1E4"/>
<stop offset="1" stop-color="#867D75"/>
</linearGradient>
<linearGradient id="paint11_linear_3166_144216" x1="187.561" y1="-5.8287" x2="-5.64931" y2="326.125" gradientUnits="userSpaceOnUse">
<stop/>
<stop offset="0.478942" stop-opacity="0"/>
<stop offset="1"/>
</linearGradient>
<linearGradient id="paint12_linear_3166_144216" x1="247.694" y1="69.8465" x2="83.3318" y2="258.376" gradientUnits="userSpaceOnUse">
<stop stop-color="#867D75"/>
<stop offset="0.46875" stop-color="#FFF1E4"/>
<stop offset="1" stop-color="#C19164"/>
</linearGradient>
<linearGradient id="paint13_linear_3166_144216" x1="247.694" y1="69.8465" x2="83.3318" y2="258.376" gradientUnits="userSpaceOnUse">
<stop stop-color="#867D75"/>
<stop offset="0.46875" stop-color="#FFF1E4"/>
<stop offset="1" stop-color="#C19164"/>
</linearGradient>
<linearGradient id="paint14_linear_3166_144216" x1="231.959" y1="59.5004" x2="82.2781" y2="259.701" gradientUnits="userSpaceOnUse">
<stop stop-color="#867D75"/>
<stop offset="0.46875" stop-color="#FFF1E4"/>
<stop offset="1" stop-color="#867D75"/>
</linearGradient>
<linearGradient id="paint15_linear_3166_144216" x1="268.112" y1="-5.8287" x2="74.9022" y2="326.125" gradientUnits="userSpaceOnUse">
<stop/>
<stop offset="0.478942" stop-opacity="0"/>
<stop offset="1"/>
</linearGradient>
<linearGradient id="paint16_linear_3166_144216" x1="328.246" y1="69.8465" x2="163.884" y2="258.376" gradientUnits="userSpaceOnUse">
<stop stop-color="#867D75"/>
<stop offset="0.46875" stop-color="#FFF1E4"/>
<stop offset="1" stop-color="#C19164"/>
</linearGradient>
<linearGradient id="paint17_linear_3166_144216" x1="328.246" y1="69.8465" x2="163.884" y2="258.376" gradientUnits="userSpaceOnUse">
<stop stop-color="#867D75"/>
<stop offset="0.46875" stop-color="#FFF1E4"/>
<stop offset="1" stop-color="#C19164"/>
</linearGradient>
<linearGradient id="paint18_linear_3166_144216" x1="312.511" y1="59.5004" x2="162.83" y2="259.701" gradientUnits="userSpaceOnUse">
<stop stop-color="#867D75"/>
<stop offset="0.46875" stop-color="#FFF1E4"/>
<stop offset="1" stop-color="#867D75"/>
</linearGradient>
<linearGradient id="paint19_linear_3166_144216" x1="348.664" y1="-5.8287" x2="155.454" y2="326.125" gradientUnits="userSpaceOnUse">
<stop/>
<stop offset="0.478942" stop-opacity="0"/>
<stop offset="1"/>
</linearGradient>
<linearGradient id="paint20_linear_3166_144216" x1="569.9" y1="69.8465" x2="405.538" y2="258.376" gradientUnits="userSpaceOnUse">
<stop stop-color="#867D75"/>
<stop offset="0.46875" stop-color="#FFF1E4"/>
<stop offset="1" stop-color="#C19164"/>
</linearGradient>
<linearGradient id="paint21_linear_3166_144216" x1="569.9" y1="69.8465" x2="405.538" y2="258.376" gradientUnits="userSpaceOnUse">
<stop stop-color="#867D75"/>
<stop offset="0.46875" stop-color="#FFF1E4"/>
<stop offset="1" stop-color="#C19164"/>
</linearGradient>
<linearGradient id="paint22_linear_3166_144216" x1="554.165" y1="59.5004" x2="404.484" y2="259.701" gradientUnits="userSpaceOnUse">
<stop stop-color="#867D75"/>
<stop offset="0.46875" stop-color="#E5D8CD"/>
<stop offset="1" stop-color="#867D75"/>
</linearGradient>
<linearGradient id="paint23_linear_3166_144216" x1="590.318" y1="-5.8287" x2="397.108" y2="326.125" gradientUnits="userSpaceOnUse">
<stop/>
<stop offset="0.478942" stop-opacity="0"/>
<stop offset="1"/>
</linearGradient>
<linearGradient id="paint24_linear_3166_144216" x1="650.451" y1="69.8465" x2="486.089" y2="258.376" gradientUnits="userSpaceOnUse">
<stop stop-color="#867D75"/>
<stop offset="0.46875" stop-color="#FFF1E4"/>
<stop offset="1" stop-color="#C19164"/>
</linearGradient>
<linearGradient id="paint25_linear_3166_144216" x1="650.451" y1="69.8465" x2="486.089" y2="258.376" gradientUnits="userSpaceOnUse">
<stop stop-color="#867D75"/>
<stop offset="0.46875" stop-color="#FFF1E4"/>
<stop offset="1" stop-color="#C19164"/>
</linearGradient>
<linearGradient id="paint26_linear_3166_144216" x1="634.717" y1="59.5004" x2="485.035" y2="259.701" gradientUnits="userSpaceOnUse">
<stop stop-color="#867D75"/>
<stop offset="0.46875" stop-color="#FFF1E4"/>
<stop offset="1" stop-color="#867D75"/>
</linearGradient>
<linearGradient id="paint27_linear_3166_144216" x1="670.87" y1="-5.8287" x2="477.659" y2="326.125" gradientUnits="userSpaceOnUse">
<stop/>
<stop offset="0.478942" stop-opacity="0"/>
<stop offset="1"/>
</linearGradient>
<linearGradient id="paint28_linear_3166_144216" x1="731.003" y1="69.8465" x2="566.641" y2="258.376" gradientUnits="userSpaceOnUse">
<stop stop-color="#867D75"/>
<stop offset="0.46875" stop-color="#FFF1E4"/>
<stop offset="1" stop-color="#C19164"/>
</linearGradient>
<linearGradient id="paint29_linear_3166_144216" x1="731.003" y1="69.8465" x2="566.641" y2="258.376" gradientUnits="userSpaceOnUse">
<stop stop-color="#867D75"/>
<stop offset="0.46875" stop-color="#FFF1E4"/>
<stop offset="1" stop-color="#C19164"/>
</linearGradient>
<linearGradient id="paint30_linear_3166_144216" x1="715.268" y1="59.5004" x2="565.587" y2="259.701" gradientUnits="userSpaceOnUse">
<stop stop-color="#867D75"/>
<stop offset="0.46875" stop-color="#FFF1E4"/>
<stop offset="1" stop-color="#867D75"/>
</linearGradient>
<linearGradient id="paint31_linear_3166_144216" x1="751.421" y1="-5.8287" x2="558.211" y2="326.125" gradientUnits="userSpaceOnUse">
<stop/>
<stop offset="0.478942" stop-opacity="0"/>
<stop offset="1"/>
</linearGradient>
<linearGradient id="paint32_linear_3166_144216" x1="811.554" y1="69.8465" x2="647.191" y2="258.376" gradientUnits="userSpaceOnUse">
<stop stop-color="#867D75"/>
<stop offset="0.46875" stop-color="#FFF1E4"/>
<stop offset="1" stop-color="#C19164"/>
</linearGradient>
<linearGradient id="paint33_linear_3166_144216" x1="811.554" y1="69.8465" x2="647.191" y2="258.376" gradientUnits="userSpaceOnUse">
<stop stop-color="#867D75"/>
<stop offset="0.46875" stop-color="#FFF1E4"/>
<stop offset="1" stop-color="#C19164"/>
</linearGradient>
<linearGradient id="paint34_linear_3166_144216" x1="795.819" y1="59.5004" x2="646.138" y2="259.701" gradientUnits="userSpaceOnUse">
<stop stop-color="#867D75"/>
<stop offset="0.46875" stop-color="#FFF1E4"/>
<stop offset="1" stop-color="#867D75"/>
</linearGradient>
<linearGradient id="paint35_linear_3166_144216" x1="831.972" y1="-5.8287" x2="638.762" y2="326.125" gradientUnits="userSpaceOnUse">
<stop/>
<stop offset="0.478942" stop-opacity="0"/>
<stop offset="1"/>
</linearGradient>
<linearGradient id="paint36_linear_3166_144216" x1="892.106" y1="69.8465" x2="727.743" y2="258.376" gradientUnits="userSpaceOnUse">
<stop stop-color="#867D75"/>
<stop offset="0.46875" stop-color="#FFF1E4"/>
<stop offset="1" stop-color="#C19164"/>
</linearGradient>
<linearGradient id="paint37_linear_3166_144216" x1="892.106" y1="69.8465" x2="727.743" y2="258.376" gradientUnits="userSpaceOnUse">
<stop stop-color="#867D75"/>
<stop offset="0.46875" stop-color="#FFF1E4"/>
<stop offset="1" stop-color="#C19164"/>
</linearGradient>
<linearGradient id="paint38_linear_3166_144216" x1="876.371" y1="59.5004" x2="726.69" y2="259.701" gradientUnits="userSpaceOnUse">
<stop stop-color="#867D75"/>
<stop offset="0.46875" stop-color="#FFF1E4"/>
<stop offset="1" stop-color="#867D75"/>
</linearGradient>
<linearGradient id="paint39_linear_3166_144216" x1="912.524" y1="-5.8287" x2="719.314" y2="326.125" gradientUnits="userSpaceOnUse">
<stop/>
<stop offset="0.478942" stop-opacity="0"/>
<stop offset="1"/>
</linearGradient>
<linearGradient id="paint40_linear_3166_144216" x1="972.657" y1="69.8465" x2="808.295" y2="258.376" gradientUnits="userSpaceOnUse">
<stop stop-color="#867D75"/>
<stop offset="0.46875" stop-color="#FFF1E4"/>
<stop offset="1" stop-color="#C19164"/>
</linearGradient>
<linearGradient id="paint41_linear_3166_144216" x1="400.728" y1="150.769" x2="742" y2="150.769" gradientUnits="userSpaceOnUse">
<stop stop-color="#191919"/>
<stop offset="1" stop-color="#292929" stop-opacity="0"/>
</linearGradient>
<linearGradient id="paint42_linear_3166_144216" x1="417.375" y1="430.769" x2="742" y2="430.769" gradientUnits="userSpaceOnUse">
<stop stop-color="#191919"/>
<stop offset="1" stop-color="#191919" stop-opacity="0"/>
</linearGradient>
<clipPath id="clip0_3166_144216">
<rect width="742" height="280" fill="white"/>
</clipPath>
</defs>
</svg>
