<svg width="720" height="308" viewBox="0 0 720 308" fill="none" xmlns="http://www.w3.org/2000/svg">
<g clip-path="url(#clip0_12315_184917)">
<rect width="720" height="308" fill="#292929"/>
<g opacity="0.3" filter="url(#filter0_d_12315_184917)">
<mask id="mask0_12315_184917" style="mask-type:alpha" maskUnits="userSpaceOnUse" x="0" y="0" width="720" height="308">
<rect width="720" height="308" fill="#292929"/>
</mask>
<g mask="url(#mask0_12315_184917)">
<g filter="url(#filter1_f_12315_184917)">
<path d="M25.7758 -10.2686H29.3843L-178.607 324.058H-182.215L25.7758 -10.2686Z" fill="url(#paint0_linear_12315_184917)"/>
</g>
<g filter="url(#filter2_f_12315_184917)">
<path d="M25.7758 -10.2686H29.3843L-178.607 324.058H-182.215L25.7758 -10.2686Z" fill="url(#paint1_linear_12315_184917)"/>
</g>
<g filter="url(#filter3_f_12315_184917)">
<path d="M25.7758 -10.2686H29.3843L-178.607 324.058H-182.215L25.7758 -10.2686Z" fill="url(#paint2_linear_12315_184917)"/>
<path d="M25.7758 -10.2686H29.3843L-178.607 324.058H-182.215L25.7758 -10.2686Z" fill="url(#paint3_linear_12315_184917)" fill-opacity="0.2"/>
</g>
<g filter="url(#filter4_f_12315_184917)">
<path d="M106.328 -10.2686H109.936L-98.0548 324.058H-101.663L106.328 -10.2686Z" fill="url(#paint4_linear_12315_184917)"/>
</g>
<g filter="url(#filter5_f_12315_184917)">
<path d="M106.328 -10.2686H109.936L-98.0548 324.058H-101.663L106.328 -10.2686Z" fill="url(#paint5_linear_12315_184917)"/>
</g>
<g filter="url(#filter6_f_12315_184917)">
<path d="M106.328 -10.2686H109.936L-98.0548 324.058H-101.663L106.328 -10.2686Z" fill="url(#paint6_linear_12315_184917)"/>
<path d="M106.328 -10.2686H109.936L-98.0548 324.058H-101.663L106.328 -10.2686Z" fill="url(#paint7_linear_12315_184917)" fill-opacity="0.2"/>
</g>
<g filter="url(#filter7_f_12315_184917)">
<path d="M186.879 -10.2686H190.488L-17.5033 324.058H-21.1118L186.879 -10.2686Z" fill="url(#paint8_linear_12315_184917)"/>
</g>
<g filter="url(#filter8_f_12315_184917)">
<path d="M186.879 -10.2686H190.488L-17.5033 324.058H-21.1118L186.879 -10.2686Z" fill="url(#paint9_linear_12315_184917)"/>
</g>
<g filter="url(#filter9_f_12315_184917)">
<path d="M186.879 -10.2686H190.488L-17.5033 324.058H-21.1118L186.879 -10.2686Z" fill="url(#paint10_linear_12315_184917)"/>
<path d="M186.879 -10.2686H190.488L-17.5033 324.058H-21.1118L186.879 -10.2686Z" fill="url(#paint11_linear_12315_184917)" fill-opacity="0.2"/>
</g>
<g filter="url(#filter10_f_12315_184917)">
<path d="M267.431 -10.2686H271.039L63.0482 324.058H59.4397L267.431 -10.2686Z" fill="url(#paint12_linear_12315_184917)"/>
</g>
<g filter="url(#filter11_f_12315_184917)">
<path d="M267.431 -10.2686H271.039L63.0482 324.058H59.4397L267.431 -10.2686Z" fill="url(#paint13_linear_12315_184917)"/>
</g>
<g filter="url(#filter12_f_12315_184917)">
<path d="M267.431 -10.2686H271.039L63.0482 324.058H59.4397L267.431 -10.2686Z" fill="url(#paint14_linear_12315_184917)"/>
<path d="M267.431 -10.2686H271.039L63.0482 324.058H59.4397L267.431 -10.2686Z" fill="url(#paint15_linear_12315_184917)" fill-opacity="0.2"/>
</g>
<g filter="url(#filter13_f_12315_184917)">
<path d="M347.982 -10.2686H351.591L143.6 324.058H139.991L347.982 -10.2686Z" fill="url(#paint16_linear_12315_184917)"/>
</g>
<g filter="url(#filter14_f_12315_184917)">
<path d="M347.982 -10.2686H351.591L143.6 324.058H139.991L347.982 -10.2686Z" fill="url(#paint17_linear_12315_184917)"/>
</g>
<g filter="url(#filter15_f_12315_184917)">
<path d="M347.982 -10.2686H351.591L143.6 324.058H139.991L347.982 -10.2686Z" fill="url(#paint18_linear_12315_184917)"/>
<path d="M347.982 -10.2686H351.591L143.6 324.058H139.991L347.982 -10.2686Z" fill="url(#paint19_linear_12315_184917)" fill-opacity="0.2"/>
</g>
<g filter="url(#filter16_f_12315_184917)">
<path d="M589.636 -10.2686H593.245L385.254 324.058H381.646L589.636 -10.2686Z" fill="url(#paint20_linear_12315_184917)"/>
</g>
<g filter="url(#filter17_f_12315_184917)">
<path d="M589.636 -10.2686H593.245L385.254 324.058H381.646L589.636 -10.2686Z" fill="url(#paint21_linear_12315_184917)"/>
</g>
<g filter="url(#filter18_f_12315_184917)">
<path d="M589.636 -10.2686H593.245L385.254 324.058H381.646L589.636 -10.2686Z" fill="url(#paint22_linear_12315_184917)"/>
<path d="M589.636 -10.2686H593.245L385.254 324.058H381.646L589.636 -10.2686Z" fill="url(#paint23_linear_12315_184917)" fill-opacity="0.2"/>
</g>
<g filter="url(#filter19_f_12315_184917)">
<path d="M670.188 -10.2686H673.796L465.805 324.058H462.197L670.188 -10.2686Z" fill="url(#paint24_linear_12315_184917)"/>
</g>
<g filter="url(#filter20_f_12315_184917)">
<path d="M670.188 -10.2686H673.796L465.805 324.058H462.197L670.188 -10.2686Z" fill="url(#paint25_linear_12315_184917)"/>
</g>
<g filter="url(#filter21_f_12315_184917)">
<path d="M670.188 -10.2686H673.796L465.805 324.058H462.197L670.188 -10.2686Z" fill="url(#paint26_linear_12315_184917)"/>
<path d="M670.188 -10.2686H673.796L465.805 324.058H462.197L670.188 -10.2686Z" fill="url(#paint27_linear_12315_184917)" fill-opacity="0.2"/>
</g>
<g filter="url(#filter22_f_12315_184917)">
<path d="M750.739 -10.2686H754.348L546.357 324.058H542.749L750.739 -10.2686Z" fill="url(#paint28_linear_12315_184917)"/>
</g>
<g filter="url(#filter23_f_12315_184917)">
<path d="M750.739 -10.2686H754.348L546.357 324.058H542.749L750.739 -10.2686Z" fill="url(#paint29_linear_12315_184917)"/>
</g>
<g filter="url(#filter24_f_12315_184917)">
<path d="M750.739 -10.2686H754.348L546.357 324.058H542.749L750.739 -10.2686Z" fill="url(#paint30_linear_12315_184917)"/>
<path d="M750.739 -10.2686H754.348L546.357 324.058H542.749L750.739 -10.2686Z" fill="url(#paint31_linear_12315_184917)" fill-opacity="0.2"/>
</g>
<g filter="url(#filter25_f_12315_184917)">
<path d="M831.29 -10.2686H834.899L626.908 324.058H623.299L831.29 -10.2686Z" fill="url(#paint32_linear_12315_184917)"/>
</g>
<g filter="url(#filter26_f_12315_184917)">
<path d="M831.29 -10.2686H834.899L626.908 324.058H623.299L831.29 -10.2686Z" fill="url(#paint33_linear_12315_184917)"/>
</g>
<g filter="url(#filter27_f_12315_184917)">
<path d="M831.29 -10.2686H834.899L626.908 324.058H623.299L831.29 -10.2686Z" fill="url(#paint34_linear_12315_184917)"/>
<path d="M831.29 -10.2686H834.899L626.908 324.058H623.299L831.29 -10.2686Z" fill="url(#paint35_linear_12315_184917)" fill-opacity="0.2"/>
</g>
<g filter="url(#filter28_f_12315_184917)">
<path d="M911.842 -10.2686H915.45L707.46 324.058H703.851L911.842 -10.2686Z" fill="url(#paint36_linear_12315_184917)"/>
</g>
<g filter="url(#filter29_f_12315_184917)">
<path d="M911.842 -10.2686H915.45L707.46 324.058H703.851L911.842 -10.2686Z" fill="url(#paint37_linear_12315_184917)"/>
</g>
<g filter="url(#filter30_f_12315_184917)">
<path d="M911.842 -10.2686H915.45L707.46 324.058H703.851L911.842 -10.2686Z" fill="url(#paint38_linear_12315_184917)"/>
<path d="M911.842 -10.2686H915.45L707.46 324.058H703.851L911.842 -10.2686Z" fill="url(#paint39_linear_12315_184917)" fill-opacity="0.2"/>
</g>
<rect x="360" width="360" height="308" fill="url(#paint40_linear_12315_184917)"/>
<rect x="360" y="308" width="360" height="308" transform="rotate(-180 360 308)" fill="url(#paint41_linear_12315_184917)"/>
</g>
</g>
<path d="M302.03 148.51V146.076C302.265 146.058 302.505 146.047 302.746 146.041C309.413 145.83 313.789 151.765 313.789 151.765C313.789 151.765 309.061 158.317 303.997 158.317C303.269 158.317 302.617 158.2 302.024 158V150.616C304.62 150.927 305.143 152.076 306.705 154.675L310.177 151.754C310.177 151.754 307.645 148.434 303.369 148.434C302.911 148.434 302.47 148.463 302.03 148.51ZM302.03 140.468V144.105C302.27 144.087 302.511 144.07 302.746 144.064C312.027 143.753 318.072 151.66 318.072 151.66C318.072 151.66 311.128 160.089 303.898 160.089C303.234 160.089 302.617 160.03 302.03 159.924V162.171C302.529 162.235 303.046 162.271 303.586 162.271C310.318 162.271 315.182 158.839 319.893 154.78C320.674 155.402 323.869 156.927 324.527 157.59C320.045 161.332 309.607 164.353 303.686 164.353C303.116 164.353 302.564 164.318 302.03 164.265V167.426H327.605V140.468H302.03ZM302.03 158V159.918C295.803 158.81 294.076 152.352 294.076 152.352C294.076 152.352 297.066 149.044 302.03 148.51V150.616C302.024 150.616 302.024 150.616 302.018 150.616C299.416 150.305 297.377 152.733 297.377 152.733C297.377 152.733 298.523 156.827 302.03 158ZM290.981 152.076C290.981 152.076 294.669 146.639 302.036 146.082V144.111C293.876 144.756 286.81 151.66 286.81 151.66C286.81 151.66 290.81 163.209 302.03 164.265V162.171C293.794 161.133 290.981 152.076 290.981 152.076Z" fill="#76B900"/>
<path d="M373.675 145.56V163.256H378.68V145.56H373.675ZM334.307 145.536V163.256H339.359V149.8H343.271C344.569 149.8 345.491 150.123 346.114 150.786C346.907 151.63 347.23 152.985 347.23 155.472V163.25H352.123V153.461C352.123 146.475 347.665 145.53 343.3 145.53H334.307M381.734 145.56V163.256H389.852C394.175 163.256 395.591 162.54 397.112 160.927C398.193 159.795 398.886 157.314 398.886 154.604C398.886 152.117 398.299 149.9 397.265 148.516C395.409 146.047 392.742 145.56 388.754 145.56H381.734V145.56ZM386.698 149.413H388.848C391.967 149.413 393.987 150.815 393.987 154.446C393.987 158.077 391.967 159.479 388.848 159.479H386.698V149.413V149.413ZM366.462 145.56L362.285 159.584L358.285 145.56H352.881L358.596 163.256H365.81L371.572 145.56H366.462V145.56ZM401.218 163.256H406.223V145.566H401.218V163.256ZM415.251 145.571L408.261 163.256H413.195L414.3 160.13H422.57L423.616 163.256H428.973L421.93 145.571H415.251ZM418.5 148.797L421.531 157.08H415.369L418.5 148.797Z" fill="white"/>
<path d="M431.54 163.796C430.676 163.796 429.977 163.098 429.977 162.235C429.977 161.373 430.676 160.675 431.54 160.675C432.403 160.675 433.102 161.373 433.102 162.235C433.102 163.098 432.403 163.796 431.54 163.796ZM431.54 160.974C430.841 160.974 430.3 161.514 430.3 162.235C430.3 162.957 430.841 163.496 431.54 163.496C432.239 163.496 432.779 162.957 432.779 162.235C432.779 161.514 432.245 160.974 431.54 160.974ZM431.822 163.062L431.522 162.417H431.346V163.062H430.976V161.402H431.651C431.986 161.402 432.204 161.649 432.204 161.924C432.204 162.153 432.057 162.3 431.898 162.364L432.251 163.062H431.822ZM431.604 161.707H431.346V162.141H431.604C431.745 162.141 431.833 162.042 431.833 161.924C431.833 161.807 431.739 161.707 431.604 161.707Z" fill="white"/>
</g>
<defs>
<filter id="filter0_d_12315_184917" x="-4" y="0" width="728" height="316" filterUnits="userSpaceOnUse" color-interpolation-filters="sRGB">
<feFlood flood-opacity="0" result="BackgroundImageFix"/>
<feColorMatrix in="SourceAlpha" type="matrix" values="0 0 0 0 0 0 0 0 0 0 0 0 0 0 0 0 0 0 127 0" result="hardAlpha"/>
<feOffset dy="4"/>
<feGaussianBlur stdDeviation="2"/>
<feComposite in2="hardAlpha" operator="out"/>
<feColorMatrix type="matrix" values="0 0 0 0 0 0 0 0 0 0 0 0 0 0 0 0 0 0 0.25 0"/>
<feBlend mode="normal" in2="BackgroundImageFix" result="effect1_dropShadow_12315_184917"/>
<feBlend mode="normal" in="SourceGraphic" in2="effect1_dropShadow_12315_184917" result="shape"/>
</filter>
<filter id="filter1_f_12315_184917" x="-232.215" y="-60.2686" width="311.599" height="434.326" filterUnits="userSpaceOnUse" color-interpolation-filters="sRGB">
<feFlood flood-opacity="0" result="BackgroundImageFix"/>
<feBlend mode="normal" in="SourceGraphic" in2="BackgroundImageFix" result="shape"/>
<feGaussianBlur stdDeviation="25" result="effect1_foregroundBlur_12315_184917"/>
</filter>
<filter id="filter2_f_12315_184917" x="-202.215" y="-30.2686" width="251.599" height="374.326" filterUnits="userSpaceOnUse" color-interpolation-filters="sRGB">
<feFlood flood-opacity="0" result="BackgroundImageFix"/>
<feBlend mode="normal" in="SourceGraphic" in2="BackgroundImageFix" result="shape"/>
<feGaussianBlur stdDeviation="10" result="effect1_foregroundBlur_12315_184917"/>
</filter>
<filter id="filter3_f_12315_184917" x="-184.215" y="-12.2686" width="215.599" height="338.326" filterUnits="userSpaceOnUse" color-interpolation-filters="sRGB">
<feFlood flood-opacity="0" result="BackgroundImageFix"/>
<feBlend mode="normal" in="SourceGraphic" in2="BackgroundImageFix" result="shape"/>
<feGaussianBlur stdDeviation="1" result="effect1_foregroundBlur_12315_184917"/>
</filter>
<filter id="filter4_f_12315_184917" x="-151.663" y="-60.2686" width="311.599" height="434.326" filterUnits="userSpaceOnUse" color-interpolation-filters="sRGB">
<feFlood flood-opacity="0" result="BackgroundImageFix"/>
<feBlend mode="normal" in="SourceGraphic" in2="BackgroundImageFix" result="shape"/>
<feGaussianBlur stdDeviation="25" result="effect1_foregroundBlur_12315_184917"/>
</filter>
<filter id="filter5_f_12315_184917" x="-121.663" y="-30.2686" width="251.599" height="374.326" filterUnits="userSpaceOnUse" color-interpolation-filters="sRGB">
<feFlood flood-opacity="0" result="BackgroundImageFix"/>
<feBlend mode="normal" in="SourceGraphic" in2="BackgroundImageFix" result="shape"/>
<feGaussianBlur stdDeviation="10" result="effect1_foregroundBlur_12315_184917"/>
</filter>
<filter id="filter6_f_12315_184917" x="-103.663" y="-12.2686" width="215.599" height="338.326" filterUnits="userSpaceOnUse" color-interpolation-filters="sRGB">
<feFlood flood-opacity="0" result="BackgroundImageFix"/>
<feBlend mode="normal" in="SourceGraphic" in2="BackgroundImageFix" result="shape"/>
<feGaussianBlur stdDeviation="1" result="effect1_foregroundBlur_12315_184917"/>
</filter>
<filter id="filter7_f_12315_184917" x="-71.1118" y="-60.2686" width="311.599" height="434.326" filterUnits="userSpaceOnUse" color-interpolation-filters="sRGB">
<feFlood flood-opacity="0" result="BackgroundImageFix"/>
<feBlend mode="normal" in="SourceGraphic" in2="BackgroundImageFix" result="shape"/>
<feGaussianBlur stdDeviation="25" result="effect1_foregroundBlur_12315_184917"/>
</filter>
<filter id="filter8_f_12315_184917" x="-41.1118" y="-30.2686" width="251.599" height="374.326" filterUnits="userSpaceOnUse" color-interpolation-filters="sRGB">
<feFlood flood-opacity="0" result="BackgroundImageFix"/>
<feBlend mode="normal" in="SourceGraphic" in2="BackgroundImageFix" result="shape"/>
<feGaussianBlur stdDeviation="10" result="effect1_foregroundBlur_12315_184917"/>
</filter>
<filter id="filter9_f_12315_184917" x="-23.1118" y="-12.2686" width="215.599" height="338.326" filterUnits="userSpaceOnUse" color-interpolation-filters="sRGB">
<feFlood flood-opacity="0" result="BackgroundImageFix"/>
<feBlend mode="normal" in="SourceGraphic" in2="BackgroundImageFix" result="shape"/>
<feGaussianBlur stdDeviation="1" result="effect1_foregroundBlur_12315_184917"/>
</filter>
<filter id="filter10_f_12315_184917" x="9.4397" y="-60.2686" width="311.599" height="434.326" filterUnits="userSpaceOnUse" color-interpolation-filters="sRGB">
<feFlood flood-opacity="0" result="BackgroundImageFix"/>
<feBlend mode="normal" in="SourceGraphic" in2="BackgroundImageFix" result="shape"/>
<feGaussianBlur stdDeviation="25" result="effect1_foregroundBlur_12315_184917"/>
</filter>
<filter id="filter11_f_12315_184917" x="39.4397" y="-30.2686" width="251.599" height="374.326" filterUnits="userSpaceOnUse" color-interpolation-filters="sRGB">
<feFlood flood-opacity="0" result="BackgroundImageFix"/>
<feBlend mode="normal" in="SourceGraphic" in2="BackgroundImageFix" result="shape"/>
<feGaussianBlur stdDeviation="10" result="effect1_foregroundBlur_12315_184917"/>
</filter>
<filter id="filter12_f_12315_184917" x="57.4397" y="-12.2686" width="215.599" height="338.326" filterUnits="userSpaceOnUse" color-interpolation-filters="sRGB">
<feFlood flood-opacity="0" result="BackgroundImageFix"/>
<feBlend mode="normal" in="SourceGraphic" in2="BackgroundImageFix" result="shape"/>
<feGaussianBlur stdDeviation="1" result="effect1_foregroundBlur_12315_184917"/>
</filter>
<filter id="filter13_f_12315_184917" x="89.9915" y="-60.2686" width="311.599" height="434.326" filterUnits="userSpaceOnUse" color-interpolation-filters="sRGB">
<feFlood flood-opacity="0" result="BackgroundImageFix"/>
<feBlend mode="normal" in="SourceGraphic" in2="BackgroundImageFix" result="shape"/>
<feGaussianBlur stdDeviation="25" result="effect1_foregroundBlur_12315_184917"/>
</filter>
<filter id="filter14_f_12315_184917" x="119.991" y="-30.2686" width="251.599" height="374.326" filterUnits="userSpaceOnUse" color-interpolation-filters="sRGB">
<feFlood flood-opacity="0" result="BackgroundImageFix"/>
<feBlend mode="normal" in="SourceGraphic" in2="BackgroundImageFix" result="shape"/>
<feGaussianBlur stdDeviation="10" result="effect1_foregroundBlur_12315_184917"/>
</filter>
<filter id="filter15_f_12315_184917" x="137.991" y="-12.2686" width="215.599" height="338.326" filterUnits="userSpaceOnUse" color-interpolation-filters="sRGB">
<feFlood flood-opacity="0" result="BackgroundImageFix"/>
<feBlend mode="normal" in="SourceGraphic" in2="BackgroundImageFix" result="shape"/>
<feGaussianBlur stdDeviation="1" result="effect1_foregroundBlur_12315_184917"/>
</filter>
<filter id="filter16_f_12315_184917" x="331.646" y="-60.2686" width="311.599" height="434.326" filterUnits="userSpaceOnUse" color-interpolation-filters="sRGB">
<feFlood flood-opacity="0" result="BackgroundImageFix"/>
<feBlend mode="normal" in="SourceGraphic" in2="BackgroundImageFix" result="shape"/>
<feGaussianBlur stdDeviation="25" result="effect1_foregroundBlur_12315_184917"/>
</filter>
<filter id="filter17_f_12315_184917" x="361.646" y="-30.2686" width="251.599" height="374.326" filterUnits="userSpaceOnUse" color-interpolation-filters="sRGB">
<feFlood flood-opacity="0" result="BackgroundImageFix"/>
<feBlend mode="normal" in="SourceGraphic" in2="BackgroundImageFix" result="shape"/>
<feGaussianBlur stdDeviation="10" result="effect1_foregroundBlur_12315_184917"/>
</filter>
<filter id="filter18_f_12315_184917" x="379.646" y="-12.2686" width="215.599" height="338.326" filterUnits="userSpaceOnUse" color-interpolation-filters="sRGB">
<feFlood flood-opacity="0" result="BackgroundImageFix"/>
<feBlend mode="normal" in="SourceGraphic" in2="BackgroundImageFix" result="shape"/>
<feGaussianBlur stdDeviation="1" result="effect1_foregroundBlur_12315_184917"/>
</filter>
<filter id="filter19_f_12315_184917" x="412.197" y="-60.2686" width="311.599" height="434.326" filterUnits="userSpaceOnUse" color-interpolation-filters="sRGB">
<feFlood flood-opacity="0" result="BackgroundImageFix"/>
<feBlend mode="normal" in="SourceGraphic" in2="BackgroundImageFix" result="shape"/>
<feGaussianBlur stdDeviation="25" result="effect1_foregroundBlur_12315_184917"/>
</filter>
<filter id="filter20_f_12315_184917" x="442.197" y="-30.2686" width="251.599" height="374.326" filterUnits="userSpaceOnUse" color-interpolation-filters="sRGB">
<feFlood flood-opacity="0" result="BackgroundImageFix"/>
<feBlend mode="normal" in="SourceGraphic" in2="BackgroundImageFix" result="shape"/>
<feGaussianBlur stdDeviation="10" result="effect1_foregroundBlur_12315_184917"/>
</filter>
<filter id="filter21_f_12315_184917" x="460.197" y="-12.2686" width="215.599" height="338.326" filterUnits="userSpaceOnUse" color-interpolation-filters="sRGB">
<feFlood flood-opacity="0" result="BackgroundImageFix"/>
<feBlend mode="normal" in="SourceGraphic" in2="BackgroundImageFix" result="shape"/>
<feGaussianBlur stdDeviation="1" result="effect1_foregroundBlur_12315_184917"/>
</filter>
<filter id="filter22_f_12315_184917" x="492.749" y="-60.2686" width="311.599" height="434.326" filterUnits="userSpaceOnUse" color-interpolation-filters="sRGB">
<feFlood flood-opacity="0" result="BackgroundImageFix"/>
<feBlend mode="normal" in="SourceGraphic" in2="BackgroundImageFix" result="shape"/>
<feGaussianBlur stdDeviation="25" result="effect1_foregroundBlur_12315_184917"/>
</filter>
<filter id="filter23_f_12315_184917" x="522.749" y="-30.2686" width="251.599" height="374.326" filterUnits="userSpaceOnUse" color-interpolation-filters="sRGB">
<feFlood flood-opacity="0" result="BackgroundImageFix"/>
<feBlend mode="normal" in="SourceGraphic" in2="BackgroundImageFix" result="shape"/>
<feGaussianBlur stdDeviation="10" result="effect1_foregroundBlur_12315_184917"/>
</filter>
<filter id="filter24_f_12315_184917" x="540.749" y="-12.2686" width="215.599" height="338.326" filterUnits="userSpaceOnUse" color-interpolation-filters="sRGB">
<feFlood flood-opacity="0" result="BackgroundImageFix"/>
<feBlend mode="normal" in="SourceGraphic" in2="BackgroundImageFix" result="shape"/>
<feGaussianBlur stdDeviation="1" result="effect1_foregroundBlur_12315_184917"/>
</filter>
<filter id="filter25_f_12315_184917" x="573.299" y="-60.2686" width="311.599" height="434.326" filterUnits="userSpaceOnUse" color-interpolation-filters="sRGB">
<feFlood flood-opacity="0" result="BackgroundImageFix"/>
<feBlend mode="normal" in="SourceGraphic" in2="BackgroundImageFix" result="shape"/>
<feGaussianBlur stdDeviation="25" result="effect1_foregroundBlur_12315_184917"/>
</filter>
<filter id="filter26_f_12315_184917" x="603.299" y="-30.2686" width="251.599" height="374.326" filterUnits="userSpaceOnUse" color-interpolation-filters="sRGB">
<feFlood flood-opacity="0" result="BackgroundImageFix"/>
<feBlend mode="normal" in="SourceGraphic" in2="BackgroundImageFix" result="shape"/>
<feGaussianBlur stdDeviation="10" result="effect1_foregroundBlur_12315_184917"/>
</filter>
<filter id="filter27_f_12315_184917" x="621.299" y="-12.2686" width="215.599" height="338.326" filterUnits="userSpaceOnUse" color-interpolation-filters="sRGB">
<feFlood flood-opacity="0" result="BackgroundImageFix"/>
<feBlend mode="normal" in="SourceGraphic" in2="BackgroundImageFix" result="shape"/>
<feGaussianBlur stdDeviation="1" result="effect1_foregroundBlur_12315_184917"/>
</filter>
<filter id="filter28_f_12315_184917" x="653.851" y="-60.2686" width="311.599" height="434.326" filterUnits="userSpaceOnUse" color-interpolation-filters="sRGB">
<feFlood flood-opacity="0" result="BackgroundImageFix"/>
<feBlend mode="normal" in="SourceGraphic" in2="BackgroundImageFix" result="shape"/>
<feGaussianBlur stdDeviation="25" result="effect1_foregroundBlur_12315_184917"/>
</filter>
<filter id="filter29_f_12315_184917" x="683.851" y="-30.2686" width="251.599" height="374.326" filterUnits="userSpaceOnUse" color-interpolation-filters="sRGB">
<feFlood flood-opacity="0" result="BackgroundImageFix"/>
<feBlend mode="normal" in="SourceGraphic" in2="BackgroundImageFix" result="shape"/>
<feGaussianBlur stdDeviation="10" result="effect1_foregroundBlur_12315_184917"/>
</filter>
<filter id="filter30_f_12315_184917" x="701.851" y="-12.2686" width="215.599" height="338.326" filterUnits="userSpaceOnUse" color-interpolation-filters="sRGB">
<feFlood flood-opacity="0" result="BackgroundImageFix"/>
<feBlend mode="normal" in="SourceGraphic" in2="BackgroundImageFix" result="shape"/>
<feGaussianBlur stdDeviation="1" result="effect1_foregroundBlur_12315_184917"/>
</filter>
<linearGradient id="paint0_linear_12315_184917" x1="6.03932" y1="69.8465" x2="-158.323" y2="258.376" gradientUnits="userSpaceOnUse">
<stop stop-color="#867D75"/>
<stop offset="0.46875" stop-color="#FFF1E4"/>
<stop offset="1" stop-color="#C19164"/>
</linearGradient>
<linearGradient id="paint1_linear_12315_184917" x1="6.03932" y1="69.8465" x2="-158.323" y2="258.376" gradientUnits="userSpaceOnUse">
<stop stop-color="#867D75"/>
<stop offset="0.46875" stop-color="#FFF1E4"/>
<stop offset="1" stop-color="#C19164"/>
</linearGradient>
<linearGradient id="paint2_linear_12315_184917" x1="-9.69542" y1="59.5004" x2="-159.377" y2="259.701" gradientUnits="userSpaceOnUse">
<stop stop-color="#867D75"/>
<stop offset="0.46875" stop-color="#FFF1E4"/>
<stop offset="1" stop-color="#867D75"/>
</linearGradient>
<linearGradient id="paint3_linear_12315_184917" x1="26.4576" y1="-5.8287" x2="-166.753" y2="326.125" gradientUnits="userSpaceOnUse">
<stop/>
<stop offset="0.478942" stop-opacity="0"/>
<stop offset="1"/>
</linearGradient>
<linearGradient id="paint4_linear_12315_184917" x1="86.5911" y1="69.8465" x2="-77.7712" y2="258.376" gradientUnits="userSpaceOnUse">
<stop stop-color="#867D75"/>
<stop offset="0.46875" stop-color="#FFF1E4"/>
<stop offset="1" stop-color="#C19164"/>
</linearGradient>
<linearGradient id="paint5_linear_12315_184917" x1="86.5911" y1="69.8465" x2="-77.7712" y2="258.376" gradientUnits="userSpaceOnUse">
<stop stop-color="#867D75"/>
<stop offset="0.46875" stop-color="#FFF1E4"/>
<stop offset="1" stop-color="#C19164"/>
</linearGradient>
<linearGradient id="paint6_linear_12315_184917" x1="70.8563" y1="59.5004" x2="-78.825" y2="259.701" gradientUnits="userSpaceOnUse">
<stop stop-color="#867D75"/>
<stop offset="0.46875" stop-color="#FFF1E4"/>
<stop offset="1" stop-color="#867D75"/>
</linearGradient>
<linearGradient id="paint7_linear_12315_184917" x1="107.009" y1="-5.8287" x2="-86.2008" y2="326.125" gradientUnits="userSpaceOnUse">
<stop/>
<stop offset="0.478942" stop-opacity="0"/>
<stop offset="1"/>
</linearGradient>
<linearGradient id="paint8_linear_12315_184917" x1="167.143" y1="69.8465" x2="2.78032" y2="258.376" gradientUnits="userSpaceOnUse">
<stop stop-color="#867D75"/>
<stop offset="0.46875" stop-color="#FFF1E4"/>
<stop offset="1" stop-color="#C19164"/>
</linearGradient>
<linearGradient id="paint9_linear_12315_184917" x1="167.143" y1="69.8465" x2="2.78032" y2="258.376" gradientUnits="userSpaceOnUse">
<stop stop-color="#867D75"/>
<stop offset="0.46875" stop-color="#FFF1E4"/>
<stop offset="1" stop-color="#C19164"/>
</linearGradient>
<linearGradient id="paint10_linear_12315_184917" x1="151.408" y1="59.5004" x2="1.72655" y2="259.701" gradientUnits="userSpaceOnUse">
<stop stop-color="#867D75"/>
<stop offset="0.46875" stop-color="#FFF1E4"/>
<stop offset="1" stop-color="#867D75"/>
</linearGradient>
<linearGradient id="paint11_linear_12315_184917" x1="187.561" y1="-5.8287" x2="-5.64931" y2="326.125" gradientUnits="userSpaceOnUse">
<stop/>
<stop offset="0.478942" stop-opacity="0"/>
<stop offset="1"/>
</linearGradient>
<linearGradient id="paint12_linear_12315_184917" x1="247.694" y1="69.8465" x2="83.3318" y2="258.376" gradientUnits="userSpaceOnUse">
<stop stop-color="#867D75"/>
<stop offset="0.46875" stop-color="#FFF1E4"/>
<stop offset="1" stop-color="#C19164"/>
</linearGradient>
<linearGradient id="paint13_linear_12315_184917" x1="247.694" y1="69.8465" x2="83.3318" y2="258.376" gradientUnits="userSpaceOnUse">
<stop stop-color="#867D75"/>
<stop offset="0.46875" stop-color="#FFF1E4"/>
<stop offset="1" stop-color="#C19164"/>
</linearGradient>
<linearGradient id="paint14_linear_12315_184917" x1="231.959" y1="59.5004" x2="82.2781" y2="259.701" gradientUnits="userSpaceOnUse">
<stop stop-color="#867D75"/>
<stop offset="0.46875" stop-color="#FFF1E4"/>
<stop offset="1" stop-color="#867D75"/>
</linearGradient>
<linearGradient id="paint15_linear_12315_184917" x1="268.112" y1="-5.8287" x2="74.9022" y2="326.125" gradientUnits="userSpaceOnUse">
<stop/>
<stop offset="0.478942" stop-opacity="0"/>
<stop offset="1"/>
</linearGradient>
<linearGradient id="paint16_linear_12315_184917" x1="328.246" y1="69.8465" x2="163.884" y2="258.376" gradientUnits="userSpaceOnUse">
<stop stop-color="#867D75"/>
<stop offset="0.46875" stop-color="#FFF1E4"/>
<stop offset="1" stop-color="#C19164"/>
</linearGradient>
<linearGradient id="paint17_linear_12315_184917" x1="328.246" y1="69.8465" x2="163.884" y2="258.376" gradientUnits="userSpaceOnUse">
<stop stop-color="#867D75"/>
<stop offset="0.46875" stop-color="#FFF1E4"/>
<stop offset="1" stop-color="#C19164"/>
</linearGradient>
<linearGradient id="paint18_linear_12315_184917" x1="312.511" y1="59.5004" x2="162.83" y2="259.701" gradientUnits="userSpaceOnUse">
<stop stop-color="#867D75"/>
<stop offset="0.46875" stop-color="#FFF1E4"/>
<stop offset="1" stop-color="#867D75"/>
</linearGradient>
<linearGradient id="paint19_linear_12315_184917" x1="348.664" y1="-5.8287" x2="155.454" y2="326.125" gradientUnits="userSpaceOnUse">
<stop/>
<stop offset="0.478942" stop-opacity="0"/>
<stop offset="1"/>
</linearGradient>
<linearGradient id="paint20_linear_12315_184917" x1="569.9" y1="69.8465" x2="405.538" y2="258.376" gradientUnits="userSpaceOnUse">
<stop stop-color="#867D75"/>
<stop offset="0.46875" stop-color="#FFF1E4"/>
<stop offset="1" stop-color="#C19164"/>
</linearGradient>
<linearGradient id="paint21_linear_12315_184917" x1="569.9" y1="69.8465" x2="405.538" y2="258.376" gradientUnits="userSpaceOnUse">
<stop stop-color="#867D75"/>
<stop offset="0.46875" stop-color="#FFF1E4"/>
<stop offset="1" stop-color="#C19164"/>
</linearGradient>
<linearGradient id="paint22_linear_12315_184917" x1="554.165" y1="59.5004" x2="404.484" y2="259.701" gradientUnits="userSpaceOnUse">
<stop stop-color="#867D75"/>
<stop offset="0.46875" stop-color="#E5D8CD"/>
<stop offset="1" stop-color="#867D75"/>
</linearGradient>
<linearGradient id="paint23_linear_12315_184917" x1="590.318" y1="-5.8287" x2="397.108" y2="326.125" gradientUnits="userSpaceOnUse">
<stop/>
<stop offset="0.478942" stop-opacity="0"/>
<stop offset="1"/>
</linearGradient>
<linearGradient id="paint24_linear_12315_184917" x1="650.451" y1="69.8465" x2="486.089" y2="258.376" gradientUnits="userSpaceOnUse">
<stop stop-color="#867D75"/>
<stop offset="0.46875" stop-color="#FFF1E4"/>
<stop offset="1" stop-color="#C19164"/>
</linearGradient>
<linearGradient id="paint25_linear_12315_184917" x1="650.451" y1="69.8465" x2="486.089" y2="258.376" gradientUnits="userSpaceOnUse">
<stop stop-color="#867D75"/>
<stop offset="0.46875" stop-color="#FFF1E4"/>
<stop offset="1" stop-color="#C19164"/>
</linearGradient>
<linearGradient id="paint26_linear_12315_184917" x1="634.716" y1="59.5004" x2="485.035" y2="259.701" gradientUnits="userSpaceOnUse">
<stop stop-color="#867D75"/>
<stop offset="0.46875" stop-color="#FFF1E4"/>
<stop offset="1" stop-color="#867D75"/>
</linearGradient>
<linearGradient id="paint27_linear_12315_184917" x1="670.869" y1="-5.8287" x2="477.659" y2="326.125" gradientUnits="userSpaceOnUse">
<stop/>
<stop offset="0.478942" stop-opacity="0"/>
<stop offset="1"/>
</linearGradient>
<linearGradient id="paint28_linear_12315_184917" x1="731.003" y1="69.8465" x2="566.641" y2="258.376" gradientUnits="userSpaceOnUse">
<stop stop-color="#867D75"/>
<stop offset="0.46875" stop-color="#FFF1E4"/>
<stop offset="1" stop-color="#C19164"/>
</linearGradient>
<linearGradient id="paint29_linear_12315_184917" x1="731.003" y1="69.8465" x2="566.641" y2="258.376" gradientUnits="userSpaceOnUse">
<stop stop-color="#867D75"/>
<stop offset="0.46875" stop-color="#FFF1E4"/>
<stop offset="1" stop-color="#C19164"/>
</linearGradient>
<linearGradient id="paint30_linear_12315_184917" x1="715.268" y1="59.5004" x2="565.587" y2="259.701" gradientUnits="userSpaceOnUse">
<stop stop-color="#867D75"/>
<stop offset="0.46875" stop-color="#FFF1E4"/>
<stop offset="1" stop-color="#867D75"/>
</linearGradient>
<linearGradient id="paint31_linear_12315_184917" x1="751.421" y1="-5.8287" x2="558.211" y2="326.125" gradientUnits="userSpaceOnUse">
<stop/>
<stop offset="0.478942" stop-opacity="0"/>
<stop offset="1"/>
</linearGradient>
<linearGradient id="paint32_linear_12315_184917" x1="811.554" y1="69.8465" x2="647.191" y2="258.376" gradientUnits="userSpaceOnUse">
<stop stop-color="#867D75"/>
<stop offset="0.46875" stop-color="#FFF1E4"/>
<stop offset="1" stop-color="#C19164"/>
</linearGradient>
<linearGradient id="paint33_linear_12315_184917" x1="811.554" y1="69.8465" x2="647.191" y2="258.376" gradientUnits="userSpaceOnUse">
<stop stop-color="#867D75"/>
<stop offset="0.46875" stop-color="#FFF1E4"/>
<stop offset="1" stop-color="#C19164"/>
</linearGradient>
<linearGradient id="paint34_linear_12315_184917" x1="795.819" y1="59.5004" x2="646.138" y2="259.701" gradientUnits="userSpaceOnUse">
<stop stop-color="#867D75"/>
<stop offset="0.46875" stop-color="#FFF1E4"/>
<stop offset="1" stop-color="#867D75"/>
</linearGradient>
<linearGradient id="paint35_linear_12315_184917" x1="831.972" y1="-5.8287" x2="638.762" y2="326.125" gradientUnits="userSpaceOnUse">
<stop/>
<stop offset="0.478942" stop-opacity="0"/>
<stop offset="1"/>
</linearGradient>
<linearGradient id="paint36_linear_12315_184917" x1="892.105" y1="69.8465" x2="727.743" y2="258.376" gradientUnits="userSpaceOnUse">
<stop stop-color="#867D75"/>
<stop offset="0.46875" stop-color="#FFF1E4"/>
<stop offset="1" stop-color="#C19164"/>
</linearGradient>
<linearGradient id="paint37_linear_12315_184917" x1="892.105" y1="69.8465" x2="727.743" y2="258.376" gradientUnits="userSpaceOnUse">
<stop stop-color="#867D75"/>
<stop offset="0.46875" stop-color="#FFF1E4"/>
<stop offset="1" stop-color="#C19164"/>
</linearGradient>
<linearGradient id="paint38_linear_12315_184917" x1="876.371" y1="59.5004" x2="726.689" y2="259.701" gradientUnits="userSpaceOnUse">
<stop stop-color="#867D75"/>
<stop offset="0.46875" stop-color="#FFF1E4"/>
<stop offset="1" stop-color="#867D75"/>
</linearGradient>
<linearGradient id="paint39_linear_12315_184917" x1="912.524" y1="-5.8287" x2="719.314" y2="326.125" gradientUnits="userSpaceOnUse">
<stop/>
<stop offset="0.478942" stop-opacity="0"/>
<stop offset="1"/>
</linearGradient>
<linearGradient id="paint40_linear_12315_184917" x1="388.846" y1="165.846" x2="720" y2="165.846" gradientUnits="userSpaceOnUse">
<stop stop-color="#191919"/>
<stop offset="1" stop-color="#292929" stop-opacity="0"/>
</linearGradient>
<linearGradient id="paint41_linear_12315_184917" x1="405" y1="473.846" x2="720" y2="473.846" gradientUnits="userSpaceOnUse">
<stop stop-color="#191919"/>
<stop offset="1" stop-color="#191919" stop-opacity="0"/>
</linearGradient>
<clipPath id="clip0_12315_184917">
<rect width="720" height="308" fill="white"/>
</clipPath>
</defs>
</svg>
