<svg width="47" height="16" viewBox="0 0 47 16" xmlns="http://www.w3.org/2000/svg">
<path fill-rule="evenodd" clip-rule="evenodd" d="M39 2H8C4.68629 2 2 4.68629 2 8C2 11.3137 4.68629 14 8 14H39C42.3137 14 45 11.3137 45 8C45 4.68629 42.3137 2 39 2ZM8 0C3.58172 0 0 3.58172 0 8C0 12.4183 3.58172 16 8 16H39C43.4183 16 47 12.4183 47 8C47 3.58172 43.4183 0 39 0H8Z" />
<path fill-rule="evenodd" clip-rule="evenodd" d="M10 6C8.89543 6 8 6.89543 8 8C8 9.10457 8.89543 10 10 10H37C38.1046 10 39 9.10457 39 8C39 6.89543 38.1046 6 37 6H10Z" />
</svg>
