<svg width="47" height="16" viewBox="0 0 47 16" xmlns="http://www.w3.org/2000/svg">
<path fill-rule="evenodd" clip-rule="evenodd" d="M42.0325 2H4.96745C3.13835 2 1.74099 3.64371 2.02336 5.46313L2.95455 11.4631C3.18119 12.9235 4.43055 14 5.89865 14H41.1014C42.5695 14 43.8188 12.9235 44.0454 11.4631L44.9766 5.46313C45.259 3.64371 43.8617 2 42.0325 2ZM4.96745 0C1.91894 0 -0.409988 2.73951 0.0606325 5.77189L0.991824 11.7719C1.36956 14.2058 3.45181 16 5.89865 16H41.1014C43.5482 16 45.6304 14.2058 46.0082 11.7719L46.9394 5.77188C47.41 2.73951 45.0811 0 42.0325 0H4.96745Z" />
<path d="M10 5.5C10 6.32843 9.32843 7 8.5 7C7.67157 7 7 6.32843 7 5.5C7 4.67157 7.67157 4 8.5 4C9.32843 4 10 4.67157 10 5.5Z" />
<path d="M16 5.5C16 6.32843 15.3284 7 14.5 7C13.6716 7 13 6.32843 13 5.5C13 4.67157 13.6716 4 14.5 4C15.3284 4 16 4.67157 16 5.5Z" />
<path d="M22 5.5C22 6.32843 21.3284 7 20.5 7C19.6716 7 19 6.32843 19 5.5C19 4.67157 19.6716 4 20.5 4C21.3284 4 22 4.67157 22 5.5Z" />
<path d="M28 5.5C28 6.32843 27.3284 7 26.5 7C25.6716 7 25 6.32843 25 5.5C25 4.67157 25.6716 4 26.5 4C27.3284 4 28 4.67157 28 5.5Z" />
<path d="M34 5.5C34 6.32843 33.3284 7 32.5 7C31.6716 7 31 6.32843 31 5.5C31 4.67157 31.6716 4 32.5 4C33.3284 4 34 4.67157 34 5.5Z" />
<path d="M40 5.5C40 6.32843 39.3284 7 38.5 7C37.6716 7 37 6.32843 37 5.5C37 4.67157 37.6716 4 38.5 4C39.3284 4 40 4.67157 40 5.5Z" />
<path d="M13 10.5C13 11.3284 12.3284 12 11.5 12C10.6716 12 10 11.3284 10 10.5C10 9.67157 10.6716 9 11.5 9C12.3284 9 13 9.67157 13 10.5Z" />
<path d="M19 10.5C19 11.3284 18.3284 12 17.5 12C16.6716 12 16 11.3284 16 10.5C16 9.67157 16.6716 9 17.5 9C18.3284 9 19 9.67157 19 10.5Z" />
<path d="M25 10.5C25 11.3284 24.3284 12 23.5 12C22.6716 12 22 11.3284 22 10.5C22 9.67157 22.6716 9 23.5 9C24.3284 9 25 9.67157 25 10.5Z" />
<path d="M31 10.5C31 11.3284 30.3284 12 29.5 12C28.6716 12 28 11.3284 28 10.5C28 9.67157 28.6716 9 29.5 9C30.3284 9 31 9.67157 31 10.5Z" />
<path d="M37 10.5C37 11.3284 36.3284 12 35.5 12C34.6716 12 34 11.3284 34 10.5C34 9.67157 34.6716 9 35.5 9C36.3284 9 37 9.67157 37 10.5Z" />
</svg>
